<svg xmlns="http://www.w3.org/2000/svg" xmlns:xlink="http://www.w3.org/1999/xlink" version="1.1" id="Layer_1" x="0px" y="0px" style="enable-background:new 0 0 500 500;" xml:space="preserve" viewBox="4 199.57 489 71.78">
<style type="text/css">
	.st0{fill:#FFFFFF;}
</style>
<g>
	<g>
		<path class="st0" d="M110.01,245.72v-22.47h13.77v19.8c0,4.11,1.51,5.89,4.11,5.89c2.74,0,4.8-1.78,4.8-6.71v-18.97h13.84v35.55    h-13.15l-0.34-5c-1.78,2.88-5.41,5.89-10.55,5.89C113.78,259.69,110.01,254.28,110.01,245.72z"/>
		<path class="st0" d="M152,258.8v-35.55h13.02l0.34,5.34c1.58-2.88,5-6.23,11.1-6.23c9.32,0,12.4,5.96,12.4,13.7v22.74h-13.7    v-19.18c0-4.04-1.03-6.51-4.45-6.51c-2.95,0-5,2.12-5,6.44v19.25H152z"/>
		<path class="st0" d="M194.13,258.8v-35.55h13.02l0.27,7.06c1.44-3.9,4.52-7.67,10.07-7.67c0.96,0,1.71,0.07,2.4,0.21v13.01    c-1.03-0.14-2.12-0.21-3.22-0.21c-6.44,0-8.84,2.81-8.84,7.74v15.41H194.13z"/>
		<path class="st0" d="M223.65,245.72v-22.47h13.77v19.8c0,4.11,1.51,5.89,4.11,5.89c2.74,0,4.79-1.78,4.79-6.71v-18.97h13.84v35.55    h-13.15l-0.34-5c-1.78,2.88-5.41,5.89-10.55,5.89C227.42,259.69,223.65,254.28,223.65,245.72z"/>
		<path class="st0" d="M266.33,259.42h13.22c0.41,1.92,1.85,3.01,5.07,3.01c3.56,0,5.34-1.58,5.34-4.38v-6.3    c-1.85,3.29-5.41,5.48-10.07,5.48c-9.73,0-15.21-8.15-15.21-17.19v-0.41c0-9.25,5.82-17.26,15.69-17.26    c5.41,0,8.97,3.36,10.14,6.78l0.41-5.89h12.81v32.81c0,10.34-8.08,15.28-19.39,15.28C273.52,271.34,266.6,266.75,266.33,259.42z     M290.3,239.96v-0.41c0-4.45-1.58-7.19-5.89-7.19c-4.31,0-5.89,2.74-5.89,7.19v0.41c0,4.45,1.58,7.19,5.89,7.19    C288.73,247.16,290.3,244.42,290.3,239.96z"/>
		<path class="st0" d="M309.9,259.42h13.22c0.41,1.92,1.85,3.01,5.07,3.01c3.56,0,5.34-1.58,5.34-4.38v-6.3    c-1.85,3.29-5.41,5.48-10.07,5.48c-9.73,0-15.21-8.15-15.21-17.19v-0.41c0-9.25,5.82-17.26,15.69-17.26    c5.41,0,8.97,3.36,10.14,6.78l0.41-5.89h12.81v32.81c0,10.34-8.08,15.28-19.39,15.28C317.09,271.34,310.17,266.75,309.9,259.42z     M333.87,239.96v-0.41c0-4.45-1.58-7.19-5.89-7.19c-4.31,0-5.89,2.74-5.89,7.19v0.41c0,4.45,1.58,7.19,5.89,7.19    C332.29,247.16,333.87,244.42,333.87,239.96z"/>
		<path class="st0" d="M351.48,249.01c0-6.23,4.11-9.93,11.51-10.75l10.89-1.23v-2.67c0-1.85-1.16-3.08-3.63-3.08    c-2.67,0-4.04,1.23-4.18,3.29h-13.08c0.14-7.6,7.06-12.19,17.6-12.19c10.14,0,17.06,4.52,17.06,11.78v24.66h-13.15l-0.41-5    c-2.06,3.77-5.89,5.89-11.3,5.89C356.2,259.69,351.48,255.24,351.48,249.01z M373.88,245.99v-1.99l-5.69,0.68    c-2.33,0.27-3.43,1.58-3.43,3.15c0,1.85,1.16,3.08,3.56,3.08C371.41,250.92,373.88,249.08,373.88,245.99z"/>
		<path class="st0" d="M406.14,252.91l-0.41,5.89h-12.81v-50.69h13.77v19.73c1.85-3.22,5.27-5.48,10.07-5.48    c9.73,0,15.21,8.15,15.21,18.43v0.41c0,10.48-5.82,18.49-15.69,18.49C410.87,259.69,407.3,256.34,406.14,252.91z M418.13,241.2    v-0.41c0-5.69-1.58-8.43-5.89-8.43s-5.89,2.74-5.89,8.43v0.41c0,5.69,1.58,8.43,5.89,8.43S418.13,246.88,418.13,241.2z"/>
		<path class="st0" d="M450.19,208.11v50.69h-13.7v-50.69H450.19z"/>
		<path class="st0" d="M454.71,241.2v-0.41c0-11.1,7.88-18.43,19.59-18.43c12.88,0,19.45,8.91,18.63,21.65h-25.14    c0.55,4.32,2.47,6.03,6.37,6.03c3.01,0,4.73-1.58,5.21-2.95h13.36c-1.71,7.54-8.56,12.6-18.43,12.6    C462.31,259.69,454.71,252.57,454.71,241.2z M479.37,237.5c0-3.22-1.64-5.48-5.27-5.48c-3.77,0-5.62,1.51-6.23,5.48H479.37z"/>
	</g>
	<g>
		<path class="st0" d="M77.6,221.91v-5.71c0-9.17-7.46-16.63-16.63-16.63h-1.63c-0.35,0-0.71,0.01-1.14,0.04    c-0.09,0-0.18,0.01-0.28,0.02c-0.42,0.03-0.77,0.08-1.11,0.13l-0.04,0l-0.01,0c-0.31,0.05-0.65,0.11-1.04,0.2    c-0.09,0.02-0.17,0.04-0.27,0.06c-0.4,0.1-0.74,0.18-1.06,0.29l-0.06,0.01l0,0c-0.3,0.1-0.62,0.2-0.97,0.34    c-0.08,0.03-0.17,0.06-0.25,0.1c-0.37,0.15-0.7,0.29-0.99,0.43l-0.04,0.02c-0.29,0.14-0.58,0.3-0.92,0.49    c-0.08,0.04-0.15,0.09-0.22,0.13c-0.34,0.2-0.63,0.38-0.9,0.56l-0.05,0.03l-0.02,0.02c-0.27,0.18-0.53,0.38-0.81,0.6    c-0.06,0.05-0.13,0.1-0.19,0.15c-0.56,0.44-1.09,0.94-1.59,1.45c-0.06,0.06-0.11,0.12-0.17,0.17c-0.49,0.52-0.95,1.08-1.37,1.66    c-0.04,0.07-0.09,0.13-0.14,0.19c-0.26,0.38-0.51,0.77-0.74,1.17h-4.52c-0.24-0.4-0.48-0.79-0.74-1.17    c-0.05-0.06-0.09-0.13-0.14-0.19c-0.42-0.59-0.88-1.15-1.37-1.67c-0.06-0.06-0.11-0.12-0.17-0.17c-0.5-0.52-1.03-1.01-1.59-1.45    c-0.06-0.05-0.12-0.1-0.19-0.15c-0.29-0.23-0.56-0.42-0.82-0.6l-0.02-0.01l-0.04-0.03c-0.27-0.18-0.56-0.36-0.9-0.56    c-0.08-0.04-0.15-0.08-0.22-0.13c-0.34-0.19-0.64-0.35-0.93-0.49l-0.01,0c-0.31-0.15-0.64-0.29-1.01-0.44    c-0.08-0.03-0.16-0.06-0.25-0.1c-0.35-0.14-0.66-0.25-0.96-0.34l-0.01,0l-0.06-0.02c-0.32-0.1-0.66-0.19-1.06-0.28    c-0.09-0.02-0.18-0.04-0.27-0.06c-0.4-0.09-0.74-0.15-1.07-0.2h-0.01c-0.36-0.06-0.71-0.1-1.13-0.14c-0.09,0-0.19-0.01-0.28-0.02    c-0.42-0.03-0.79-0.04-1.14-0.04h-1.63c-9.18,0-16.64,7.46-16.64,16.63v5.71C5.3,226.19,4,231.04,4,236    c0,15.53,12.63,28.15,28.15,28.15h21.07c15.52,0,28.15-12.62,28.15-28.15C81.37,231.04,80.07,226.19,77.6,221.91z M29.75,222.72    c0,1.5-0.52,2.86-1.35,3.82v0c-0.77,0.89-1.79,1.44-2.94,1.44h-0.7c-0.56,0-1.1-0.14-1.6-0.39c-0.5-0.25-0.94-0.61-1.33-1.06v0    c-0.83-0.96-1.35-2.32-1.35-3.82v-5.6c0-2.91,1.92-5.27,4.28-5.27h0.7c2.37,0,4.29,2.37,4.29,5.27V222.72z M55.01,233.09    c-1.32,3.29-6.26,5.67-12.33,5.67s-11.01-2.38-12.32-5.67c-0.06-0.15-0.1-0.32-0.1-0.47c0-0.68,0.56-1.3,1.31-1.3h0.56    c0.51,0,0.96,0.28,1.17,0.74c0.83,1.81,4.58,3.59,9.39,3.59c4.82,0,8.56-1.77,9.39-3.59c0.21-0.46,0.67-0.74,1.17-0.74h0.56    C54.7,231.32,55.35,232.24,55.01,233.09z M64.89,222.72c0,1.5-0.52,2.86-1.35,3.82v0c-0.77,0.89-1.8,1.44-2.94,1.44h-0.7    c-0.57,0-1.1-0.14-1.6-0.39c-0.5-0.25-0.95-0.61-1.33-1.06v0c-0.83-0.96-1.35-2.32-1.35-3.82v-5.6c0-2.91,1.92-5.27,4.28-5.27h0.7    c2.36,0,4.28,2.37,4.28,5.27V222.72z"/>
	</g>
</g>
</svg>