<?xml version="1.0" encoding="utf-8"?>
<!-- Generator: Adobe Illustrator 28.0.0, SVG Export Plug-In . SVG Version: 6.00 Build 0)  -->
<svg version="1.1" id="Layer_1" xmlns="http://www.w3.org/2000/svg" xmlns:xlink="http://www.w3.org/1999/xlink" x="0px" y="0px"
	 viewBox="0 0 500 500" style="enable-background:new 0 0 500 500;" xml:space="preserve">
<style type="text/css">
	.st0{fill:#FFFFFF;}
</style>
<g>
	<g>
		<path class="st0" d="M6,237.7v-28.63h17.54v25.22c0,5.24,1.92,7.51,5.24,7.51c3.49,0,6.11-2.27,6.11-8.55v-24.18h17.63v45.3H35.76
			L35.33,248c-2.27,3.67-6.89,7.51-13.44,7.51C10.8,255.51,6,248.61,6,237.7z"/>
		<path class="st0" d="M59.51,254.37v-45.3h16.58l0.44,6.81c2.01-3.67,6.37-7.94,14.14-7.94c11.87,0,15.8,7.59,15.8,17.46v28.98
			H89.01v-24.44c0-5.15-1.31-8.29-5.67-8.29c-3.75,0-6.37,2.71-6.37,8.2v24.53H59.51z"/>
		<path class="st0" d="M113.18,254.37v-45.3h16.58l0.35,8.99c1.83-4.98,5.76-9.78,12.83-9.78c1.22,0,2.18,0.09,3.05,0.26v16.58
			c-1.31-0.17-2.71-0.26-4.1-0.26c-8.2,0-11.26,3.58-11.26,9.86v19.64H113.18z"/>
		<path class="st0" d="M150.8,237.7v-28.63h17.54v25.22c0,5.24,1.92,7.51,5.24,7.51c3.49,0,6.11-2.27,6.11-8.55v-24.18h17.63v45.3
			h-16.76l-0.44-6.37c-2.27,3.67-6.89,7.51-13.44,7.51C155.6,255.51,150.8,248.61,150.8,237.7z"/>
		<path class="st0" d="M205.18,255.16h16.85c0.52,2.44,2.36,3.84,6.46,3.84c4.54,0,6.81-2.01,6.81-5.59v-8.03
			c-2.36,4.19-6.89,6.98-12.83,6.98c-12.39,0-19.38-10.39-19.38-21.91v-0.52c0-11.78,7.42-22,19.99-22c6.89,0,11.43,4.28,12.92,8.64
			l0.52-7.51h16.32v41.81c0,13.18-10.3,19.46-24.7,19.46C214.34,270.35,205.53,264.5,205.18,255.16z M235.73,230.37v-0.52
			c0-5.67-2.01-9.16-7.51-9.16c-5.5,0-7.51,3.49-7.51,9.16v0.52c0,5.67,2.01,9.16,7.51,9.16
			C233.72,239.54,235.73,236.05,235.73,230.37z"/>
		<path class="st0" d="M260.69,255.16h16.85c0.52,2.44,2.36,3.84,6.46,3.84c4.54,0,6.81-2.01,6.81-5.59v-8.03
			c-2.36,4.19-6.89,6.98-12.83,6.98c-12.39,0-19.38-10.39-19.38-21.91v-0.52c0-11.78,7.42-22,19.99-22c6.89,0,11.43,4.28,12.92,8.64
			l0.52-7.51h16.32v41.81c0,13.18-10.3,19.46-24.7,19.46C269.86,270.35,261.04,264.5,260.69,255.16z M291.24,230.37v-0.52
			c0-5.67-2.01-9.16-7.51-9.16c-5.5,0-7.51,3.49-7.51,9.16v0.52c0,5.67,2.01,9.16,7.51,9.16
			C289.23,239.54,291.24,236.05,291.24,230.37z"/>
		<path class="st0" d="M313.67,241.89c0-7.94,5.24-12.66,14.66-13.7l13.88-1.57v-3.4c0-2.36-1.48-3.93-4.63-3.93
			c-3.4,0-5.15,1.57-5.32,4.19h-16.67c0.17-9.69,8.99-15.54,22.43-15.54c12.92,0,21.73,5.76,21.73,15.01v31.42H343l-0.52-6.37
			c-2.62,4.8-7.51,7.51-14.4,7.51C319.7,255.51,313.67,249.84,313.67,241.89z M342.21,238.05v-2.53l-7.24,0.87
			c-2.97,0.35-4.36,2.01-4.36,4.02c0,2.36,1.48,3.93,4.54,3.93C339.07,244.34,342.21,241.98,342.21,238.05z"/>
		<path class="st0" d="M383.32,246.87l-0.52,7.51h-16.32v-64.59h17.54v25.14c2.36-4.1,6.72-6.98,12.83-6.98
			c12.39,0,19.38,10.39,19.38,23.48v0.52c0,13.35-7.42,23.57-19.99,23.57C389.35,255.51,384.81,251.23,383.32,246.87z M398.6,231.94
			v-0.52c0-7.24-2.01-10.74-7.51-10.74s-7.51,3.49-7.51,10.74v0.52c0,7.24,2.01,10.74,7.51,10.74S398.6,239.19,398.6,231.94z"/>
		<path class="st0" d="M439.45,189.79v64.59h-17.46v-64.59H439.45z"/>
		<path class="st0" d="M445.21,231.94v-0.52c0-14.14,10.04-23.48,24.96-23.48c16.41,0,24.79,11.35,23.74,27.58h-32.03
			c0.7,5.5,3.14,7.68,8.12,7.68c3.84,0,6.02-2.01,6.63-3.75h17.02c-2.18,9.6-10.91,16.06-23.48,16.06
			C454.9,255.51,445.21,246.43,445.21,231.94z M476.63,227.23c0-4.1-2.09-6.98-6.72-6.98c-4.8,0-7.16,1.92-7.94,6.98H476.63z"/>
	</g>
</g>
</svg>
