<?xml version="1.0" encoding="UTF-8"?>
<svg id="Layer_1" xmlns="http://www.w3.org/2000/svg" version="1.1" viewBox="0 0 72 72">
  <!-- Generator: Adobe Illustrator 29.6.0, SVG Export Plug-In . SVG Version: 2.1.1 Build 207)  -->
  <path d="M33.91,34.22c1.03.1,1.6.6,2.18,1.37.03.04.05.1.12.09l.79-1.46h3.85s.71,1.31.71,1.31c.58-.81,1.44-1.22,2.43-1.31h5.04c.93-1.58.59-2.94-1-3.82s-4.81-1.4-6.55-.57c-1.18.56-1.14,2.11-1.27,3.22,0,.08-.04.16-.1.08-.06-.93-.12-2.37-.86-3.03-.69-.61-2.12-.66-3.01-.73l.4-.1c.75-.07,1.7-.13,2.36-.52,1.04-.62.99-2.14,1.14-3.19.12-.04.07.11.08.18.15,1.89.23,3,2.3,3.39,1.54.3,3.28.08,4.89.23,2.6.25,7.05,1.3,4.99,4.85h10.4v.78l.39-.73.11-.05h3.83s4.14,7.88,4.14,7.88h-4.84l-.53-.88c-.28.03-1.34-.09-1.51.04-.17.15-.29.66-.47.83h-13.98v-1.36l-.44.52c-.65.59-1.49.79-2.35.84-2.31.13-4.74-.1-7.06,0-4.03,1.53-8.2,2.76-12.46,3.53-3.01.54-6.28.92-9.34.8-.06,0-.19.04-.18-.05,5.86-.34,11.61-1.77,17.12-3.71l1.44-.58h-3.79c-.34-.44-.61-.96-.95-1.4-.03-.04,0-.1-.12-.07v1.46h-4.44v-.26s-1.49.26-1.49.26h-6.84s-.5-.92-.5-.92c-.06-.04-1.19-.05-1.34-.03-.32.04-.42.75-.68.94h-4.84l4.14-7.87h3.88s.61.98.61.98v-.99h5.94s1.1.21,1.1.21l.03-.21h6.56ZM12.44,41.58h3.79l.53-.88c.6.04,1.34-.08,1.93-.01.32.04.36.76.68.89h6.85c.54-.06,1.07-.18,1.57-.42l.03.42h3.5v-1.46h.76l1,1.46h4.28s.11-.05.11-.05l.48-.83c.6.04,1.34-.08,1.93-.01.32.04.36.76.68.89h6.96c1.03-.02,2.32-.91,2.32-2.01v-1.9h.63v3.91h3.45v-3.91h.73v3.91h9.04l.45-.89,2.11.03.41.85h3.82l-3.66-6.86-3.26-.02-1.24,2.18v-2.11l-.08-.08h-18.25c-.15,0-.64.13-.81.18-.77.26-1.42.96-1.47,1.8-.08-.02-.12-.11-.17-.17-.35-.54-.61-1.24-.94-1.8h-3.3s-1.34,2.39-1.34,2.39c.07-1.48-1.04-2.31-2.43-2.4-1.82-.12-3.76.09-5.6,0l-.12.09v.38c-.53-.31-1.12-.39-1.71-.47h-5.31s0,2.5,0,2.5l-1.37-2.5h-3.33s-3.67,6.88-3.67,6.88ZM38.79,41.21h-.62s-.17.36-.17.36l.78-.36Z"/>
  <path d="M35.6,29.31l-3.68.37c-5.66.82-11.29,2.3-16.55,4.51-3.17,1.33-9.14,4.26-10.8,7.33-1.48,2.74,1.04,3.97,3.32,4.46l2.25.34c-2.4-.01-5.23.09-7.46-.93-4.5-2.05-.09-5.87,2.21-7.46,5.26-3.62,12.85-6.14,19.09-7.46,3.8-.8,7.72-1.32,11.62-1.16Z"/>
  <path d="M55.52,44.34l.19-.41c.49-.84,1.83-.66,2.04.31.31,1.49-1.86,1.91-2.2.42-.19,1.11-1.75,1.31-2.14.21-.54-1.5,1.9-2.12,2.12-.52Z"/>
  <path d="M51.9,43.41c.57-.12,1.25.19,1.36.81.28,1.6-1.96,1.84-2.17.44-.08-.52.28-1.15.81-1.25Z"/>
  <path d="M21.8,40.58v-4.91h4.47c.6,0,1.48.46,1.74,1.02s.25,2.35-.02,2.89c-.25.5-1.08.99-1.62.99h-4.57ZM23.27,39.44h2.54c.21,0,.63-.26.75-.45.26-.41.24-1.48-.12-1.85-.13-.13-.57-.31-.73-.31h-2.43v2.61Z"/>
  <path d="M48.83,37.35h-1.31c0-.51-.3-.64-.76-.68s-2.14-.05-2.49.08c-.44.17-.35.78.13.86,1.27.19,4.25-.64,4.42,1.28.09,1.06-.37,1.63-1.44,1.7-.75.05-3.21.1-3.83-.09-.74-.22-.97-.85-.9-1.58h1.31c-.03.45.23.64.65.68.54.05,1.82.06,2.34-.02.71-.1.7-.83,0-.92-1.04-.14-3.24.32-4-.45-.33-.33-.35-.92-.31-1.36.07-.82.74-1.12,1.49-1.17s3.1-.09,3.73.09c.76.22,1.01.83.95,1.58Z"/>
  <path d="M33.7,35.68c.51.06,1.15.39,1.26.94.06.29.06,1.39-.01,1.66-.1.39-.46.62-.8.77l1.05,1.54h-1.62l-.91-1.41h-2.33v1.41h-1.52v-4.91h4.89ZM33.12,36.67h-2.8v1.46h2.9c.19,0,.41-.25.44-.45.07-.48.02-.94-.55-1.01Z"/>
  <polygon points="61.33 35.68 61.33 36.67 57.14 36.67 57.14 37.61 60.93 37.61 61.01 37.69 61.01 38.65 57.14 38.65 57.14 39.59 61.33 39.59 61.33 40.58 55.63 40.58 55.63 35.68 61.33 35.68"/>
  <path d="M42.61,40.58h-1.54l-.53-.88h-3.08c-.3.03-.42.67-.62.88h-1.54l2.64-4.91c.61.06,1.35-.07,1.94,0,.06,0,.11,0,.15.06l2.59,4.85ZM37.9,38.7h2.09l-1.07-1.98-1.02,1.98Z"/>
  <path d="M21.44,40.58h-1.54l-.53-.88h-3.08c-.3.03-.42.67-.62.88h-1.54l2.64-4.91c.61.06,1.35-.07,1.94,0,.06,0,.11,0,.15.06l2.59,4.85ZM16.73,38.7h2.09l-1.07-1.98-1.02,1.98Z"/>
  <path d="M68.85,40.58h-1.62l-.43-.88h-3.25s-.45.88-.45.88h-1.62l2.57-4.82c.04-.08.1-.08.17-.09.39-.05,1.5-.05,1.89,0,.06,0,.11,0,.15.05l2.59,4.85ZM66.24,38.7l-1.07-2.04-1.07,2.04h2.14Z"/>
  <polygon points="55.26 35.68 55.26 36.67 52.91 36.67 52.91 40.58 51.45 40.58 51.45 36.75 51.37 36.67 49.09 36.67 49.09 35.68 55.26 35.68"/>
</svg>