<?xml version="1.0" encoding="UTF-8"?>
<svg id="Layer_1" xmlns="http://www.w3.org/2000/svg" version="1.1" viewBox="0 0 72 72">
  <!-- Generator: Adobe Illustrator 29.6.0, SVG Export Plug-In . SVG Version: 2.1.1 Build 207)  -->
  <g>
    <path d="M53.67,38.33v-9.83l.21-.21h3.77c.18,0,1.22.27,1.46.35,1.42.49,1.79,1.67,1.68,3.07-.08.96-.65,1.48-1.48,1.87l-.05.19,2.08,4.34c-.1.13-.18.19-.34.21-.36.05-1.74.05-1.97-.13-.18-.15-.39-.65-.5-.89-.53-1.07-.92-2.23-1.44-3.31-.22-.23-.76-.17-1.06-.07-.1.07-.12.17-.13.28-.16,1.13.17,2.64,0,3.77-.02.16-.08.25-.21.35h-2.02ZM55.9,32.89c.56.22,1.35.14,1.87-.16.86-.49.86-2.54,0-3.03-.37-.21-1.58-.48-1.87-.09v3.28Z"/>
    <path d="M37.72,28.32c.68-.11,2.43-.1,3.08.07.83.21,1.53.88,1.81,1.68.49,1.43.54,5.65-.22,6.96-.17.29-.68.84-.96.99-.9.47-3.63.46-4.55,0-.62-.31-.95-.83-1.19-1.46-.46-1.25-.47-4.89-.11-6.18.29-1.01,1.05-1.88,2.13-2.05ZM38.21,29.58c-.19.19-.43,1.13-.45,1.43-.1,1.08-.13,4.6.21,5.51.17.44.33.75.84.83,1.21.18,1.62-.68,1.73-1.75.12-1.17.12-3.41,0-4.57-.09-.91-.49-1.9-1.58-1.75-.14.02-.66.23-.74.31Z"/>
    <path d="M61.9,38.33l2.16-8.92c.73-1.59,3.82-1.52,4.43.18l2.2,8.53c-.1.13-.17.19-.34.21-.26.04-1.76.03-1.9-.06l-.57-2.21-.2-.22-2.99.04-.76,2.45h-2.02ZM65.18,34.84h2.09l.21-.47-.98-4.4h-.48c-.19,1.43-.92,2.97-1.04,4.4-.02.23.01.34.21.47Z"/>
    <path d="M32.18,37.07v-2.44c-.21-.42-1.41-.09-1.53-.21l.63-1.11h3.28v4.81l-.21.21h-4.47s-.69-.14-.81-.17c-.79-.21-1.47-.8-1.8-1.55-.54-1.22-.59-5.08-.14-6.33.29-.81,1.02-1.54,1.87-1.75.21-.05,1.05-.24,1.16-.24h3.91s.28.2.15.28l-.49.91c-1.71.31-4.05-.69-4.44,1.7-.14.85-.12,3.12-.03,4.01.16,1.61,1.47,2.24,2.93,1.88Z"/>
    <path d="M43.27,38.33c-.07-.02-.25-.22-.2-.34l.5-.79c.78-.48,2.7.42,3.06-.68l.06-7.88c.03-.33.21-.33.48-.35.36-.03,1.64-.1,1.73.23l.02,7.93c-.05.59-.64,1.38-1.16,1.63-.09.04-.69.25-.73.25h-3.77Z"/>
    <path d="M50.41,28.31c.52.02,1.16-.09,1.66-.02.16.02.28.06.33.23l-.04,9.68-.17.11c-.52-.02-1.16.09-1.66.02-.16-.02-.28-.06-.33-.23l.04-9.68.17-.11Z"/>
    <path d="M50.32,45.16h-.68s-.29-.77-.29-.77h-.99l-.29.76h-.68c.38-.83.4-1.99.73-2.81.21-.53,1.18-.55,1.43-.1.37.68.37,2.17.77,2.92ZM49.35,44.04l-.49-1.67-.49,1.67h.98Z"/>
    <path d="M55.62,41.95h.7c-.18.38-.29.95.07,1.25.54-.42.61-1.41,1.47-1.25l-.7,1.18c0,.11.39.06.57.27.28.34.06,1.3.13,1.75h-.7s-.13-1.61-.13-1.61h-.72s-.13,1.61-.13,1.61h-.56v-3.21Z"/>
    <path d="M34.55,41.95c-.23.56-1.54-.03-1.54.77,0,.58,1.29.59,1.66.93.36,1.95-.8,1.48-2.21,1.51-.18-.16-.02-.27.21-.28.31-.02.98.08,1.2-.06.69-1.49-1.52-.62-1.55-1.96s1.31-.8,2.24-.9Z"/>
    <path d="M63.3,41.95h1.67c.11.52-.59.18-.89.3-.32.1-.31.69-.1.9.24.16.8-.04.85.13.1.35-.44.15-.7.28-.23.11-.31.91-.26,1.1.1.38.91.19,1.24.23-.33.54-1.27.18-1.81.28v-3.21Z"/>
    <path d="M42.65,41.95c-.19.51-.87.07-1.09.48l.11,2.72h-.7s0-2.72,0-2.72l-.23-.19-.89-.02.21-.28h2.58Z"/>
  </g>
  <g>
    <path d="M14.64,25.89v.4c.37-.19.62,0,.95,0,.39,0,.78-.32,1.02.19h1.08s.2.21.2.21c.45-.25,1.12.25,1.32-.21l1.14-.1c-.06.33-.23.26-.39.36-.42.27-2.04,1.39-2.37,1.44-.29.05-.5-.14-.61.2-1.3.16-2.54.61-3.89.7-.46.03-1.2-.09-1.59,0-.07.02-.05.14-.09.17-.51.36-1.4.31-1.94.67-.26.17-.71.86-.96,1.04-.68.48-.32.42-.77,1.05-.06.08-.32.24-.36.3-.21.31-.32.85-.84.87.39.4.13.81.1,1.25-.02.29.04.62,0,.9-.03.18-.21.37-.18.49.02.08.15.19.19.31.16.44.42,1.29.49,1.71.05.28-.02.58-.06.85.08.12.3.12.39.19.14.1,1.02.87,1.11,1.01.06.09.02.24.12.3.16.12.48.06.67.12.63.19,1.2.64,1.82.58l.13.2.32.02.02.18h.2s.03-.17.03-.17c.33-.26.78-.11.94-.43h.48s.06-.19.06-.19h.2c-.05.19.15.18.2.26.07.12.03.35.2.34.23-.49-.19-.69-.08-1.23.1-.48.51-.6.75-.9.04-.06.01-.17.06-.24.03-.04.16-.02.17-.09.06-.29-.17-.39-.2-.59-.05-.26.12-.39-.2-.52.09-.48-.48-.37-.4-.88.02-.1.32,0,.2-.26-.32-.1-.25.14-.38.19-.05.02-.15-.01-.2.02-.09.06-.41.8-.33.97h-.69c-.08-.05.24-.87.31-1.02.05-.09.39-.41.4-.44.05-.25.08-.85-.21-.9v-1.08s-.2-.12-.2-.12v-.38c-.25-.08-.17-.29-.29-.41-.15-.16-.5-.16-.7-.15l.1-.4h-.35s-.05-.2-.05-.2c.2.05.18-.18.27-.2.46-.1.23-.1.4-.2.78-.42,1.51-.08,2.27,0l.06.2h.2s0-.13,0-.13l.2-.07c0,1.1.69.01.77,0,.16-.03.37.02.54,0l-.2.26c0,.23-.07.49.15.64.38-.17.4-.64.89-.49l.26-.2-.02.39-.18.02v.2s.18.01.18.01c-.04.4.09.42.23.68.36-.11.63-.35,1.03-.18l.11-.21h.15s.02.18.02.18l.48.17c-.18.39-.62.32-.5.89l.2.06v.2c-.37.09-.65.17-.71.59l-.27.02v.39s.59-.21.59-.21v-.29s.55.11.55.11c.09-.24.24-.21.46-.31-.16.4.17.77-.2,1.05-.18.13-.46.08-.4.35.39-.07.21.28.65.21.1-.02,0-.32.26-.2.06.06-.26.97.2.9v.1c-.38-.03-.35.38-.7.3l.11.59h1.19s.1,1.31.1,1.31h-.3c-.14.47.26.48.38.63.09.11.19.62.32.81.08.12.28,0,.2.26l-.18.02c-.15.45.15.77.18,1.19l-1.1-.1v.4c-.16.03-.47-.06-.58.02-.02.02-.02.13-.09.18-.15.11-.43.21-.54.35-.07.09-.06.23-.1.28-.29.4-.38.2-.73.27-.07.01-.05.14-.09.17-.07.05-.18.02-.24.06-.31.25-.18.3-.23.6,0,.02-.21.23-.22.24-.09.06-.21,0-.31.02s-.04.18-.14.2c-.21.04-.31-.1-.38.2-.32.06-.21-.35-.64-.19.03.42-.21.3-.38.43-.06.04.01.26-.37.17-.07-.02-.05-.15-.12-.2-.28-.19-.32.01-.51.07-.34.11-.49.05-.68.43l-.25-.05-.1-.25-.35.2-.11-.21c-.68-.14-.61.34-.8.4-.28.03-.48-.18-.74,0l-.11-.6h-.4s0-.41,0-.41c-.31-.1-.38.27-.57.4-.49.34-.46.21-.91.03-.08-.03-.18,0-.25-.03-.12-.04,0-.26-.32-.2-.03,0-.16.51-.41,0h-.54s0-.4,0-.4c-.4-.08-.19.29-.64.2l-.12-.21c-.16-.02-.33.03-.48,0-.08-.01-.06-.13-.1-.17-.07-.06-.19-.09-.22-.13-.05-.07.2-.74-.35-.61l.2-.4-.36-.19c-.09-.04-.24.16-.3.23-.04.05-.05.1-.04.16h-.2s0-.2,0-.2h-.15s-.05.13-.05.13l-.2.07-.1-.4c-.26-.11-.16.19-.26.2h-.34s0-.71,0-.71l-.3-.05c.23-.2.58-.34.5-.69,0-.03-.29-.2-.33-.26-.12-.15-.02-.35-.27-.3l.18-.11.02-.29c-.42-.11-.83-.14-1.25-.2-.34-.04-.38-.57-.05-.5v-.1s-.21-.06-.21-.06v-.3s.21-.21.21-.21c.13-.64-.18-.49-.37-.77-.07-.1.04-.33-.23-.27-.03-.18.34-.15.4-.2-.4-.49-.03-1.14-.41-1.69h-.79s.1-.75.1-.75c-.01-.08-.39-.11-.41-.61,0-.19-.01-.15.15-.15.25-.01.5,0,.75,0l-.1-1.24.21-.12c0-.38-.08-.92.3-1.1v-.87c.11-.03.21-.23.22-.24.11-.06.26.01.36-.05.03-.02.02-.11.05-.14.3-.27.5-.48.47-.94l.11.18.29.02c0-.48-.1-.94.41-1.16l-.11-.54.59-.02.42-.74.4.06v-.8c.13-.05.75,0,.78-.02.02-.02.01-.13.09-.18.17-.12.47-.16.43-.4h.2s.05.2.05.2c.23.03.48-.27.7-.41.24-.15.31-.14.54-.37.01-.01.08-.32.21-.12.04.07-.02.23.25.3l.31-.5c.25-.02.55.05.79,0,.16-.03.26-.19.4-.2.23-.02.41.18.5.18.06,0,.16-.15.3-.17.19-.03.41.03.6,0,.28-.05.39-.3.89-.2.12.13-.01.26.26.2v-.3c.28-.1.54.19.75.19s.5-.17.76-.09Z"/>
    <path d="M12.01,34.73s0,.16.08.18c.64-.1.94.14.84.8-.02.02-.46-.17-.53-.21-.09-.06-.07-.18-.14-.2-.18-.03-.4.03-.59,0s-.31-.27-.44-.19c-.03.02.04.29-.31.19v-.39c.29-.01.84-.37,1.08-.18Z"/>
  </g>
</svg>