<?xml version="1.0" encoding="UTF-8"?>
<svg id="Layer_1" xmlns="http://www.w3.org/2000/svg" version="1.1" viewBox="0 0 72 72">
  <!-- Generator: Adobe Illustrator 29.6.0, SVG Export Plug-In . SVG Version: 2.1.1 Build 207)  -->
  <path d="M12.58,25.13c0,.74.04,1.5,0,2.24-.05,1.03-.12,2.04-.15,3.07,0,.37-.31,1.01.37.88l.98-6.04.98.41-1.44,5.69.41.18,1.88-5.33-.04-.44c.35-.08.26.29.38.42.07.08.62.25.65.36l-2.42,5.29.33.08,2.78-4.54c.08-.24-.16-.61.29-.73l.25.2-.28.49.5.61.03.22-3.09,4.14.19.19.25-.1,3.07-3.44c-.05-.31.84-1.52,1.01-.87l-.69.89.3.89-3.48,3.11.12.18.29-.06c.89-.73,1.92-1.36,2.8-2.1.35-.29.41-.47.66-.73.27-.28.75-.51,1.03-.8l.17-.03.18.5-1.34.89v.88s-3.36,1.97-3.36,1.97l-.04.29c.19.02.34-.05.51-.11.98-.36,2.36-1.12,3.2-1.71.23-.16,1.45-.78,1.71-.85.08-.02.21-.07.28-.03l.13.43-2.13.95-.25.84-3.02,1.01-.11.16.07.19c.13.08,2.57-.58,2.92-.69.15-.04.22-.2.35-.24.86-.25,1.76-.4,2.62-.68l.14.07.11.51-3.15.71-.21.57-2.64.33.07.33,2.24-.11c1.16-.34,2.46-.14,3.66-.37l.22.07-.08.65h-3.73s-.44.52-.44.52c-.29,0-1.95-.32-2.01-.04.02.21.33.21.49.24.62.13,1.23.09,1.82.16,1.28.15,2.55.4,3.84.51l-.14.69-4.39-.8-.4.33c-.21.01-1.36-.57-1.43-.25-.03.12.13.18.22.22l5.59,1.87.11.16-.21.56-4.6-1.94-.48.26-.77-.4c-.07-.08-.21.02-.22.08-.03.14.43.4.55.48,1.54.93,3.17,1.73,4.69,2.71.27.22-.13.51-.23.74l-4.42-3.04-.47.11-.62-.29.15.32,4.42,3.92-.43.61-.16-.02-3.99-4.15c-.32.17-.35.02-.66-.03l3.7,5.12-.76.43-3.12-5.04c-.87-.31-.44.39-.25.83.72,1.62,1.68,3.18,2.33,4.83-.03.11-.78.46-.91.27l-2.16-5.68-.41.11,1.5,6.07-.99.08-.91-5.89-.12-.18-.36.06.19,6.3h-.88c-.04-.13-.08-.25-.07-.39.11-1.73.17-3.47.21-5.21,0-.28.27-.82-.29-.74-.31.23-.18.56-.23.87-.28,1.74-.49,3.5-.76,5.24l-.94-.23-.13-.17,1.43-5.75-.41-.1-1.8,5.14-.02.67c-.34.07-.24-.2-.33-.36-.12-.2-.72-.3-.69-.62l2.39-4.95c-.14-.61-.43-.17-.62.12-.53.82-2.21,3.44-2.47,4.2-.08.24.01,1.12-.54.53.46-.68.02-.71-.29-1.25l3.13-4.22-.19-.19c-.17-.04-.39.24-.5.36-1,1.05-2.28,2.4-2.97,3.61-.06.1-.53.64-.6.63l-.26-.26.69-.9-.3-.81c.9-.88,1.99-1.66,2.9-2.53.27-.26.92-.79.15-.74-.88.86-2.17,1.49-3.04,2.31-.19.18-.26.4-.35.49-.13.13-1.15.9-1.22.87-.13-.06-.29-.33-.21-.47l1.31-.87.02-.95,3.34-1.97-.14-.21c-.12-.05-.3.05-.41.1-1.06.42-2.07,1.06-3.01,1.62-.24.14-1.97,1.01-2.06.94l-.15-.5,2.19-.92.08-.72c.09-.27,2.64-.87,3.05-1.08.04-.17,0-.4-.23-.35-.96.34-2.05.38-2.92.89l-2.59.71-.14-.07-.11-.51,3.09-.66.17-.51.2-.17,2.32-.31c.09-.03.1-.21.07-.25-.05-.08-1.65-.02-1.87,0-.62.05-1.32.24-1.98.29-.74.06-1.56.01-2.3.07v-.66l4-.07.3-.43c.16-.03.33-.02.5-.01.24.01,1.25.27,1.35.03.08-.26-.38-.27-.57-.31-1.48-.27-3.19-.3-4.73-.54-.19-.03-.65-.05-.69-.25l.09-.47,4.5.77.33-.33,1.2.29c.12-.34-.38-.45-.66-.55s-.59-.13-.87-.22c-1.37-.46-2.73-.96-4.1-1.43l.18-.58.21-.07,4.6,1.89.31-.21c.15-.05.63.46.69.19.03-.14-.05-.22-.16-.27l-4.88-2.77c-.1-.11.17-.67.34-.72l4.44,3.01.52-.1.33.15c.2-.22-.59-.71-.73-.84-1.2-1.09-2.41-2.17-3.62-3.26v-.22s.45-.43.45-.43l3.98,4.13c.2.12.49-.02.63-.18l-3.52-4.69-.03-.21.78-.36,3.01,4.85.24.17.31-.21-2.5-5.49.74-.35,2.12,5.55.56-.05-1.46-5.87c.22-.02.81-.33.95-.12.24,1.42.48,2.84.72,4.26.07.45.09,1,.17,1.44.06.32.31.25.56.19l-.28-6.14h.95ZM11.83,33.93c-2.64.31-2.15,4.2.35,4.01,2.67-.2,2.29-4.32-.35-4.01Z"/>
  <path d="M70.69,38.82c-.21.16-.22.47-.35.71-1.22,2.24-4.96,1.91-5.21-.78l.95-.05c.33.52.45.92,1.1,1.1.56.16,1.21.14,1.68-.22,1.59-1.21.26-3.27-1.5-2.9l-.12-1.02c1.27.11,2.39-.45,2.02-1.9-.28-1.09-2.78-1.24-2.89.08h-1.1c.11-2.19,3.2-2.56,4.54-1.21.95.97.88,2.86-.47,3.4-.08.01-.06.13-.03.18.04.11.7.44.91.7s.25.58.47.81v1.1Z"/>
  <polygon points="27.73 31.13 27.73 35.56 27.84 35.67 32.52 35.67 32.63 35.56 32.63 31.13 33.69 31.13 33.8 40.68 33.62 40.87 32.63 40.76 32.63 36.8 32.52 36.7 27.84 36.7 27.73 36.8 27.73 40.87 26.56 40.87 26.56 31.13 27.73 31.13"/>
  <path d="M63.52,40.87h-.87s-.19-.66-.19-.66l-.22-.08c-.64.93-2.13,1.06-3.13.72-2.77-.95-2.8-5.89-.05-6.9,1.04-.38,2.54-.21,3.14.79l.23.05v-3.77l.18-.11.92.11c.07.09-.01.12-.01.15v9.7ZM61.73,39.38c1.54-1.54.49-5.28-2.06-4.44-2.04.67-2.04,4.21-.06,4.9.76.27,1.55.12,2.13-.46Z"/>
  <path d="M41.16,33.91l.04,6.95h-.87s-.27-.73-.27-.73c-.27.12-.33.39-.6.57-1.3.89-3.83.04-3.9-1.71-.1-2.24,2.86-2.58,4.49-2.08.05-.01.12-.17.12-.19v-1.61l-.11-.11h-3.73l-.11-1.1h4.94ZM38.03,37.67c-.6.08-1.29.37-1.37,1.05-.21,1.89,3.8,1.67,3.51-.45-.04-.29-.2-.34-.46-.42-.48-.16-1.18-.24-1.69-.18Z"/>
  <path d="M55.54,33.91v6.95l-.88-.03-.25-.7c-.39.27-.47.63-.97.78-1.51.47-3.68-.38-3.52-2.2s2.32-2.12,3.75-1.94c.28.04.63.28.85.03v-1.68l-.11-.11h-3.73l-.18-.25.1-.85h4.94ZM54.42,37.96c-.12-.11-1.18-.3-1.41-.31-.79-.05-2.01.2-2.01,1.21,0,1.55,2.92,1.42,3.4.25.09-.22.21-.99.02-1.15Z"/>
  <path d="M44.85,40.87l-1.02-.11v-6.07l-.11-.11h-1.54c-.17-.1-.15-.69-.04-.77,1.28.03,1.87-.56,1.7-1.85l.84-.08.18.11v8.89Z"/>
  <polygon points="47.17 33.92 48.15 33.95 48.19 40.8 47.17 40.86 47.05 40.68 47.08 33.98 47.17 33.92"/>
  <path d="M48.2,31.16c.76.68-.37,1.88-1.12,1.12-.64-.64.29-1.87,1.12-1.12Z"/>
</svg>