<svg xmlns="http://www.w3.org/2000/svg" id="Layer_1" version="1.1" viewBox="-0.01 28.87 72.01 15.15">
  <!-- Generator: Adobe Illustrator 29.6.0, SVG Export Plug-In . SVG Version: 2.1.1 Build 207)  -->
  <path d="M9.56,32.04c-.61-.26-1.27-.39-1.93-.39-.69,0-1.34.14-1.93.39l1.78-3.08c.05-.09.16-.12.25-.07.03.02.05.04.07.07l1.78,3.08h0Z"/>
  <path d="M5.22,32.27c-1.19.66-2.05,1.77-2.4,3.08l-1.32-3.37c-.04-.09,0-.2.1-.23.03-.01.06-.02.09-.01l3.53.53h0Z"/>
  <path d="M3.71,39.71l-3.59-1.11c-.1-.03-.15-.13-.12-.23,0-.03.03-.06.05-.08l2.66-2.48c-.04.27-.07.54-.07.82,0,1.16.4,2.23,1.06,3.07h0Z"/>
  <path d="M7.55,41.61l-3.14,2.15c-.08.06-.19.04-.25-.05-.02-.03-.03-.06-.03-.09l-.28-3.76c.93,1.09,2.28,1.73,3.71,1.75h0Z"/>
  <path d="M11.4,39.88l-.28,3.74c0,.1-.09.17-.19.17-.03,0-.06-.01-.09-.03l-3.14-2.14c1.42-.02,2.77-.65,3.7-1.73h0Z"/>
  <path d="M15.12,38.59l-3.57,1.1c.68-.87,1.05-1.95,1.05-3.06,0-.28-.02-.56-.07-.83l2.66,2.48c.1.1.06.27-.07.31,0,0,0,0,0,0Z"/>
  <path d="M13.75,31.99l-1.32,3.37c-.35-1.31-1.21-2.42-2.39-3.09l3.52-.53c.1-.01.19.05.21.15,0,.03,0,.06-.01.09h0Z"/>
  <path d="M7.63,42.69c-.73,0-1.33.6-1.33,1.33,0,0,0,0,0,0h2.66c0-.73-.59-1.33-1.33-1.33h0Z"/>
  <path d="M12.48,40.51c-.46.58-.36,1.41.21,1.87l1.66-2.08c-.57-.46-1.41-.36-1.86.21,0,0,0,0,0,0h0Z"/>
  <path d="M13.57,35.36c.16.71.87,1.16,1.59,1,0,0,0,0,0,0l-.59-2.6c-.72.16-1.16.88-1,1.59,0,0,0,0,0,0,0,0,0,0,0,0Z"/>
  <path d="M10.31,31.29c.66.32,1.45.04,1.77-.62,0,0,0,0,0,0l-2.39-1.16c-.32.66-.04,1.46.62,1.78h0,0Z"/>
  <path d="M4.88,31.29c.66-.32.94-1.12.62-1.78l-2.39,1.16c.32.66,1.11.94,1.77.62,0,0,0,0,0,0,0,0,0,0,0,0Z"/>
  <path d="M1.72,35.36c.16-.72-.28-1.43-1-1.59l-.59,2.6c.72.16,1.43-.28,1.59-1,0,0,0,0,0,0Z"/>
  <path d="M1.09,40.3l1.66,2.08c.57-.46.67-1.3.21-1.87-.46-.57-1.29-.67-1.86-.21,0,0,0,0,0,0Z"/>
  <path d="M22.78,32.73v3.81h4.46v-3.59h2.03v8.55h-2.03v-3.14h-4.46v3.14h-2.03v-8.22l2.03-.55ZM32.95,39.69h6.22l-.55,1.82h-7.71v-8.55h8.26l-.55,1.82h-5.67v1.55h5.29v1.82h-5.29v1.54h0ZM42.44,32.95v6.73h6l-.55,1.82h-7.49v-8.55h2.03ZM51.36,32.95v8.55h-2.03v-8.55h2.03ZM59.89,32.95h2.03v5.16c0,2.49-2.03,3.58-4.66,3.58s-4.52-1.17-4.52-3.58v-4.83l2.03-.55v5.38c0,1.26.83,1.73,2.58,1.73s2.53-.51,2.53-1.73v-5.16h0ZM62.95,35.55c0-1.31,1.03-2.6,3.06-2.6h5.8l-.55,1.82h-5.23c-.63,0-.93.4-.93.78s.32.77.93.77h2.95c1.99,0,3.02,1.29,3.02,2.6s-.98,2.58-3.02,2.58h-6.02l.55-1.82h5.45c.62,0,.93-.36.93-.76s-.31-.79-.93-.79h-2.95c-2.06,0-3.06-1.29-3.06-2.58h0Z"/>
</svg>