<?xml version="1.0" encoding="UTF-8"?>
<svg id="Layer_1" xmlns="http://www.w3.org/2000/svg" version="1.1" viewBox="0 0 72 72">
  <!-- Generator: Adobe Illustrator 29.6.0, SVG Export Plug-In . SVG Version: 2.1.1 Build 207)  -->
  <g>
    <path d="M28.7,40.18h-.97v-5.61c0-.44.03-.99.08-1.63h-.02c-.09.38-.18.65-.25.81l-2.86,6.43h-.48l-2.85-6.38c-.08-.19-.17-.47-.25-.86h-.02c.03.33.05.88.05,1.64v5.6h-.95v-8.37h1.3l2.57,5.83c.2.45.33.78.39,1h.03c.17-.46.3-.8.4-1.03l2.62-5.81h1.23v8.37Z"/>
    <path d="M35.57,37.44h-4.22c.02.67.19,1.18.54,1.54.34.36.81.54,1.41.54.67,0,1.29-.22,1.86-.67v.9c-.53.38-1.22.57-2.08.57s-1.51-.27-1.99-.81-.72-1.31-.72-2.29c0-.93.26-1.69.79-2.27.53-.59,1.18-.88,1.96-.88s1.39.25,1.81.76c.43.51.64,1.21.64,2.11v.5ZM34.59,36.62c0-.55-.14-.98-.4-1.29-.26-.31-.63-.46-1.09-.46s-.83.16-1.15.48c-.32.32-.51.74-.58,1.27h3.23Z"/>
    <path d="M39.79,40.13c-.23.12-.52.19-.89.19-1.05,0-1.57-.58-1.57-1.75v-3.54h-1.03v-.82h1.03v-1.46l.96-.31v1.77h1.51v.82h-1.51v3.37c0,.4.07.69.2.86.14.17.36.26.68.26.24,0,.45-.07.62-.2v.82Z"/>
    <path d="M45.35,40.18h-.96v-.93h-.02c-.42.72-1.03,1.07-1.84,1.07-.6,0-1.06-.16-1.4-.47-.34-.32-.5-.73-.5-1.25,0-1.12.66-1.77,1.97-1.95l1.79-.25c0-1.02-.41-1.52-1.23-1.52-.72,0-1.37.25-1.95.74v-.98c.59-.37,1.26-.56,2.03-.56,1.4,0,2.11.74,2.11,2.23v3.89ZM44.39,37.16l-1.44.2c-.44.06-.78.17-1,.33-.23.16-.34.44-.34.84,0,.29.1.53.31.71.21.18.49.28.83.28.47,0,.87-.17,1.18-.5.31-.33.46-.75.46-1.26v-.6Z"/>
    <path d="M47.28,40.18v-8.37h2.31c2.95,0,4.42,1.36,4.42,4.08,0,1.29-.41,2.33-1.23,3.11-.82.78-1.91,1.18-3.29,1.18h-2.22ZM48.26,32.7v6.59h1.25c1.1,0,1.95-.29,2.56-.88.61-.59.92-1.42.92-2.5,0-2.14-1.14-3.21-3.42-3.21h-1.31Z"/>
    <path d="M62.13,40.18h-1.09l-.89-2.35h-3.55l-.83,2.35h-1.09l3.21-8.37h1.02l3.22,8.37ZM59.84,36.96l-1.31-3.57c-.04-.12-.09-.3-.13-.56h-.02c-.04.24-.08.42-.13.56l-1.3,3.57h2.9Z"/>
    <path d="M66.74,40.32c-1.19,0-2.14-.39-2.85-1.17-.71-.78-1.07-1.8-1.07-3.05,0-1.35.36-2.42,1.09-3.22.73-.8,1.72-1.2,2.97-1.2,1.16,0,2.09.39,2.79,1.17.71.78,1.06,1.8,1.06,3.05,0,1.37-.36,2.44-1.09,3.24s-1.69,1.19-2.91,1.19ZM66.81,32.56c-.88,0-1.59.32-2.14.95-.55.63-.82,1.47-.82,2.5s.27,1.86.8,2.49c.53.63,1.23.94,2.09.94.92,0,1.64-.3,2.17-.9.53-.6.79-1.44.79-2.51s-.26-1.96-.77-2.56c-.51-.6-1.22-.9-2.12-.9Z"/>
  </g>
  <path d="M1.59,28.89c-.18.02-.32.17-.32.36v2.49c0,.13.07.25.18.31.11.06.25.06.36,0,.11-.06.18-.18.18-.31v-1.63l2.04,2.04c.16-.18.33-.34.51-.5l-2.04-2.04h1.63c.13,0,.25-.07.31-.18.06-.11.06-.25,0-.36-.06-.11-.18-.18-.31-.18H1.63s-.02,0-.03,0ZM4.53,31.64l3.39,3.39c.14.13.14.38,0,.51-.13.13-.37.13-.51,0l-3.4-3.4c-1.05,1.16-1.68,2.71-1.68,4.39,0,3.63,2.95,6.58,6.58,6.58s6.58-2.95,6.58-6.58-2.95-6.58-6.58-6.58c-1.69,0-3.22.64-4.39,1.68Z"/>
</svg>