<?xml version="1.0" encoding="UTF-8"?>
<svg id="Layer_1" xmlns="http://www.w3.org/2000/svg" version="1.1" viewBox="0 0 72 72">
  <!-- Generator: Adobe Illustrator 29.6.0, SVG Export Plug-In . SVG Version: 2.1.1 Build 207)  -->
  <g>
    <path d="M11.5,30.82l-2.56,1.48-1.28-.74-3.84,2.22v1.48l-2.56,1.48v-4.43l6.39-3.69,3.84,2.21Z"/>
    <path d="M14.07,30.82v2.96l-12.8,7.39v-2.96l12.8-7.39Z"/>
    <path d="M14.07,35.26v4.44l-6.4,3.69-3.84-2.21,2.56-1.49,1.28.74h0s3.84-2.22,3.84-2.22h0v-1.48l2.56-1.48Z"/>
  </g>
  <g>
    <path d="M18.5,39.05v-6.13h2.69c1.29,0,2,.88,2,1.92s-.73,1.92-2,1.92h-1.61v2.29h-1.08ZM21.05,33.87h-1.47v1.95h1.47c.61,0,1.04-.39,1.04-.97s-.44-.97-1.04-.97h0Z"/>
    <path d="M28.14,39.05v-2.68h-3.18v2.68h-1.07v-6.13h1.07v2.5h3.18v-2.5h1.07v6.12h-1.07Z"/>
    <path d="M34.74,39.05l-.45-1.18h-2.9l-.45,1.18h-1.18l2.4-6.12h1.34l2.4,6.12h-1.18.02ZM32.85,33.83l-1.15,3.09h2.29l-1.15-3.09h0Z"/>
    <path d="M36.74,37.35c.43.45,1.08.84,1.94.84s1.23-.44,1.23-.83-.65-.72-1.4-.91c-1-.24-2.18-.54-2.18-1.83s.89-1.79,2.23-1.79,1.72.3,2.29.85l-.62.8c-.48-.48-1.13-.7-1.77-.7s-1.03.3-1.03.76.63.63,1.35.82c1.01.25,2.21.57,2.21,1.9s-.72,1.9-2.37,1.9-1.95-.4-2.48-.97l.6-.83-.02-.02Z"/>
    <path d="M41.91,39.05v-6.13h4.2v.94h-3.12v1.59h3.06v.94h-3.06v1.7h3.12v.94h-4.2v.02Z"/>
    <path d="M49.57,39.05v-6.13h1.07v5.18h2.7v.94h-3.77Z"/>
    <path d="M58.72,39.05l-.45-1.18h-2.9l-.45,1.18h-1.18l2.4-6.12h1.34l2.4,6.12h-1.18.02ZM56.82,33.83l-1.15,3.09h2.29l-1.15-3.09h0Z"/>
    <path d="M60.45,39.05v-6.13h3.01c1.12,0,1.74.7,1.74,1.56s-.5,1.29-1.06,1.41c.65.1,1.19.75,1.19,1.51s-.63,1.65-1.78,1.65h-3.1ZM61.52,35.46h1.71c.55,0,.86-.33.86-.79s-.31-.8-.86-.8h-1.71v1.59ZM61.52,38.09h1.76c.59,0,.93-.32.93-.85s-.32-.84-.93-.84h-1.76v1.7Z"/>
    <path d="M66.46,37.35c.43.45,1.08.84,1.94.84s1.23-.44,1.23-.83-.65-.72-1.4-.91c-1-.24-2.18-.54-2.18-1.83s.89-1.79,2.23-1.79,1.72.3,2.29.85l-.62.8c-.48-.48-1.13-.7-1.77-.7s-1.03.3-1.03.76.63.63,1.35.82c1.01.25,2.21.57,2.21,1.9s-.72,1.9-2.37,1.9-1.95-.4-2.48-.97l.6-.83-.02-.02Z"/>
  </g>
</svg>