<svg xmlns="http://www.w3.org/2000/svg" id="Layer_1" version="1.1" viewBox="0.74 24.89 70.54 22.17">
  <!-- Generator: Adobe Illustrator 29.6.0, SVG Export Plug-In . SVG Version: 2.1.1 Build 207)  -->
  <g>
    <path d="M.88,40.38c-.32-.09.24-.46.3-.55.58-.88.34-2.54.34-3.56s.24-2.75-.29-3.62c-.1-.17-.49-.48-.49-.51-.07-.3.94-.14,1.04-.15,1.52-.02,4.46-.29,5.64.74.79.69.77,1.8.07,2.55-.45.48-1.1.65-1.66.95-.02.1.21.55.28.67.22.42.53,1,.78,1.4.08.13.22.36.37.41.08-.02.58-1.14.68-1.33.69-1.28,1.92-3.01,1.87-4.51-.01-.4-.39-.59-.28-.92l3.02.08c.14.08-.13.37-.18.49-.15.39-.02.92.11,1.31.52,1.6,1.35,3.22,1.88,4.83.13.16.13.45.35.49.32,0,.18-.78.19-.98.03-.79,0-1.57,0-2.35,0-.93.25-2.67-.44-3.41-.1-.11-.25-.16-.33-.29l.09-.18c1.29.03,2.63-.08,3.91-.01,1.12.06,2.2.28,2.91,1.22,1.27-1.27,3.09-1.66,4.76-.94.77.33,1.18.77,1.66,1.42.26.35.38-.31.46-.45.92-1.5,3.67-1.72,5.03-.79,1.71,1.16.08,3.2-1.41,1.8-.03-.21.22-.32.26-.51.33-1.41-2.34-1.55-2.5-.26-.07.56.39.94.83,1.17,1.03.53,2.85.79,3.58,1.69.29.36.31.87.7.29.55-.83,1.7-3.16,1.31-4.1-.09-.22-.3-.34-.22-.54h3.05l.08.13c-.51.53-.34,1.14-.13,1.77.42,1.27,1.66,4.78,2.39,5.73.09.12.6.58.61.63.02.07-.04.11-.1.13l-3.32-.02c-.15-.1.06-.28.09-.41.3-1.28-.88-2.21-2.06-2.23-1.25-.02-1.62,1.34-.74,2.17.18.17.48.21.42.5h-2.31c-.21-.08-.14-.55-.35-.56-.09,0-.49.27-.63.32-.69.28-1.64.42-2.38.35-1.11-.11-2.17-.5-2.76-1.5-.14-.04-.37.33-.47.42-2.65,2.33-6.35.89-6.88-2.58-.02-.14,0-.88-.15-.92-1.37.67-3.32.98-2.97,2.97.11.6.34,1.05.86,1.37.04.06-.04.19-.08.19h-5.6l-.09-.14c.54-.84.02-1.87-.8-2.28-.7-.35-1.93-.42-2.25.46-.26.74.2,1.4.84,1.73l-.04.21h-4.82s-.15-.13-.15-.13c.85-.88-.29-2.06-.61-2.95-.13-.17-.27,0-.36.13-.47.65-.34,1.81.12,2.44.06.09.33.29.35.33.02.07-.03.19-.08.19H.88ZM24.95,32.96c-.5-.5-1.29-.51-1.8-.02-1.24,1.21-1.31,5.72.28,6.66.62.36,1.12.2,1.59-.31,1.12-1.2,1.09-5.16-.07-6.33ZM3.49,33.47v2.94l.28-.03c.98-.82,2.44-1.4,1.93-2.99-.33-1.04-2.05-1.08-2.21.09ZM18.57,32.85c-.11-.11-.33-.19-.48-.22-.82-.15-1.22.43-1.26,1.18-.04.86.06,1.74.02,2.6.08,0,.15,0,.22-.03.2-.09,1.31-1.04,1.46-1.23.46-.59.6-1.75.04-2.3ZM10.28,34.28l-.86,2.31c.05.16.45.05.62.07.48.05.87.22,1.3.41l.12-.23-1.01-2.51-.17-.06ZM36.31,34.28c-.14.02-.31.77-.37.92-.07.18-.56,1.3-.53,1.37.09.21.42.06.57.07.17.02.43.06.59.11.21.06.94.54.88.08l-.93-2.37c-.04-.07-.11-.2-.2-.18ZM28.94,37.08c-.26,1.27.62,2.7,1.99,2.71.76,0,1.46-.43,1.37-1.28-.13-1.14-1.96-1.51-2.83-1.87-.22-.09-1.24-.75-1.36-.63l-.06,1.12.9-.06Z"/>
    <path d="M13.15,43.19c.1,0,.48.03.59.06.88.19,1.06,1.31.7,2.02-.4.79-1.95.73-2.21-.17-.21-.73,0-1.85.92-1.9ZM13.26,43.69c-.76.11-.72,1.53-.02,1.61.77.09.85-.49.73-1.12-.07-.37-.34-.54-.72-.49Z"/>
    <path d="M29.21,43.19c.53-.02.93.16,1.16.66.21.45.12,1.25-.21,1.64-.36.42-1.27.4-1.69.08-.16-.12-.39-.61-.42-.81-.12-.83.27-1.54,1.16-1.58ZM28.79,45.17c.31.29,1.02.15,1.1-.35.1-.68-.18-1.49-.99-1.04-.38.21-.39,1.13-.11,1.39Z"/>
    <path d="M21.61,43.23c.36-.05.75.05,1.09.06.21,0,.49-.12.76,0l-.06.44c-.23.08-1.03-.1-1.15.02-.09.09-.1.49.01.49h1.09l-.05.48h-.96s-.11.06-.11.06c-.19.66.13.43.48.46.25.02.49.1.76.06v.36s-.08.09-.08.09h-1.76v-2.52Z"/>
    <path d="M19.26,45.75l.06-2.52c.61-.01,1.19.07,1.79,0v.5h-.92s-.09-.08-.16-.05c-.2.05-.23.55-.01.55h.98v.45h-.87c-.43,0-.31.62-.06.62h1.04v.45h-1.85Z"/>
    <path d="M27.71,44.12l-.49.12c0-.75-1.03-.68-1.12-.08-.08.53-.02,1.18.64,1.15.53-.03.41-.45.57-.5l.47.05c0,.91-1.14,1.21-1.81.77-.62-.4-.59-1.9.06-2.28s1.78-.13,1.69.77Z"/>
    <path d="M11.32,44.17c-.09-.06-.04-.53-.59-.49-.62.04-.61.71-.53,1.2.1.65,1.06.57,1.12-.07l.5.08c.09.83-.98,1.1-1.61.82-.85-.39-.83-2.09.05-2.43.65-.24,1.49.01,1.6.77-.02.09-.48.17-.54.13Z"/>
    <path d="M15.01,43.31c.06-.2.61-.02.76-.02.16,0,.9-.13.98-.06-.01.14.14.44,0,.53-.25.17-1.51-.49-1.11.63l1,.06.06.45h-.98c-.2,0-.13.7-.14.84h-.56v-2.43Z"/>
    <path d="M18.87,43.23v.5c-.37.14-.71-.09-1.08.06-.37.82.33.71.91.64.05.04.15.43.03.48h-.9c-.2,0-.13.7-.14.84h-.56s0-2.38,0-2.38l.09-.14h1.65Z"/>
    <path d="M31.11,45.2c.23.57-.08.65-.58.49-.13-.55.07-.69.58-.49Z"/>
  </g>
  <g>
    <path d="M55.65,26.54c.56.5.86,1.18,1.36,1.72.12.12.38.43.55.39.09-.02.36-.27.51-.33.24-.11.58-.13.83-.07.74.17.66.91,1.03,1.44.03.08.08.15,0,.22-.16.13-.31-.22-.43-.25-.11-.03-.3.11-.49.08-.09-.01-.21-.15-.17-.26.11-.3.37-.15.61-.17-.04-.46-.43-.82-.9-.81-.56.01-.41.5-.52.9l-.22-.03c-.16.03-.1.34-.03.43.04.06.19,0,.24.06.04.07,0,.28.06.39.12.23.75.24.98.32.95.34,1.09,2.17,1.97,2.63.26.03.86.4,1.08.39.12,0,.73-.39.8-.48.15-.19-.01-.36-.06-.52-.06-.2-.32-1.03-.22-1.16.4-.15.75-.02,1.07.23.06-.01.39-1.05.51-1.21.03-.05.06-.08.12-.09.13,0,1.16.91,1.36,1.06.33.25.3.17.58.51.06.07.85.51.96.54.2.06.42.04.6.11s.5.35.7.47c.69.41,1.25.53,2.06.47.16-.01.57-.18.65.09.08.29.04.78-.12,1.03-.33.52-1.9,1.28-2.49,1.48-.19.07-.44.09-.64.16-.94.32-2.2,1.26-3,1.86-.28.21-.55.42-.83.62h-.1s0-.08.02-.12c.16-.5,1.87-1.71,2.37-2.02.8-.51,1.43-.69,2.3-1,.56-.2,1.26-.31,1.62-.85.01-.16-.57-.2-.69-.2-.22,0-.44.08-.64.17-.29.13-.86.61-1.12.64s-.39-.16-.59-.2c-.78-.14-1.52.42-1.9,1.05-.15.06-.28-.08-.43-.08-.63-.03-.95,1.06-1.28,1.48-.12.1-.29-.04-.44-.06-.43-.05-.73.46-.83.82-.06.21-.17.89-.12,1.09.05.21.43.16.33.38-.04.08-.39.38-.48.49-1.2,1.43-2.53,3.97-4.34,4.56-.94.31-2.56.46-3.54.39-.36-.03-1.19-.13-.73-.65.13-.15.84-.48,1.03-.51.38-.07.68.12,1.05.14.28.02.82-.16,1.09-.26.14-.05.84-.37.87-.47.06-.19,0-.31.14-.53.08-.13.46-.45.48-.53.02-.09-.05-.23-.04-.34,0-.1.06-.28.12-.38.17-.31.56-.32.78-.56.14-.15.18-.36.3-.54.07-.1.68-.6.16-.47-.48.11-.52.37-.75.67-.16.2-.81.35-1.09.37-.74.08-2.07-.12-2.18-1.04-.13-1.12.12-2.55-.09-3.64-.02-.09-.29-.81-.41-.69-.05.34.14.67.17,1.02.17,2.19-.79,3.44-2.5,4.62-.37.26-.89.45-1.18.82-.75.95-.15,1.84-.12,2.88.01.54-.16,1.38-.62,1.74-.25.2-.97.12-1.11-.22-.2-.49.61-.98.49-1.62-.01-.07-.11-.35-.15-.4-.1-.12-.3-.07-.36-.19-.11-.21-.08-.73-.11-.98l-.41-.23c-.14-.26,0-.76-.17-.95-.04-.05-.12-.06-.16-.13-.13-.23-.05-.61.13-.79.28-.28.88-.59,1.22-.89.6-.53.76-.8.62-1.63-.19-1.13-1.06-2.58-2.19-2.94s-2.07-.39-2.89-1.42c-.72-.9-.87-2.89-.8-4.02.1-1.64,1.01-2.7.27-4.49-.09-.21-.55-.89-.53-1.02,1.2-.35,2.74.36,3.47,1.34,1.02,1.37,1.49,2.93.59,4.5-.55.95-1.63,1.82-1.45,3.02.09.59.96.72,1.44.63s1.46-.96,1.97-1.27c1.44-.85,3.27-.49,4.71.17.42.19,1.27.77,1.64.82.07,0,.54.04.57.02.16-.28.22-1.1-.04-1.3-.19-.15-1.23-.03-1.56-.07-.57-.07-.99-.56-1.42-.88s-.88-.5-1.16-1.02c-.06-.12-.07-.3-.18-.41-.15-.16-.47-.19-.67-.38-.29-.28-.2-.5-.34-.79-.05-.12-.32-.17-.43-.25-.21-.14-1.12-1.11-1.16-1.31-.01-.07-.02-.17.02-.23.07-.07.16-.08.25-.09.65-.02,1.6.33,2.31.38.19.01.19-.05.18-.23-.02-.33-.27-.35-.33-.64-.05-.25.07-.56-.12-.76-.04-.04-.1-.04-.13-.06-.31-.28-.69-.76-.55-1.21.11-.36.64.17.81.26.91.52,1.72.44,2.6,1.23ZM45.28,25.23c-.21.06.09.3.15.38.22.33.53,1.33.61,1.73.04.2,0,.44.06.65.11.38.38.57.78.46.32-.08.27-.48.45-.47.07,0,1.1,1.18,1.06.36-.04-.99-.91-2.07-1.73-2.58-.24-.15-1.14-.6-1.38-.53ZM56.76,30.15c-.39-.51-.22-.64-.9-1.05-.85-.51-3.09-.9-4.07-.82-.06,0-.12-.03-.1.06.9,1.12,3.03.39,3.89,1.52.09.12.2.24.13.39-.33-.09-.64-.29-.98-.38-.38-.1-.92-.18-1.32-.23-.22-.03-.45-.07-.68-.05.25.63,1.01.44,1.52.59.41.12.61.47.78.83-.06.05-.94-.44-1.16-.45-.34-.01.24.6.38.67.44.24,1.13.15,1.51.45.07.06.35.38.27.46l-.84-.25c.1.35.63.55.96.61.43.07.96-.09,1.38.04s.61.6.6,1.01c0,.35-.18.66-.22.97-.07.64.62,1.02.88,1.56s-.2.92-.46,1.37c-.21.38-.34,1.01-.67,1.26-.08.06-.24.08-.27.15-.02.42-.07.83,0,1.24l.1.07c.08,0,.14-.14.18-.2.45-.73.78-1.5,1.39-2.12.34-.35.72-.5.87-1.01.27-.88.13-1.48-.19-2.32-.15-.4-1.04-1.91-.8-2.26.05-.08.19-.05.25,0,.09.08.4.95.52,1.16.15.27.36.64.7.68.23.03.51-.03.75,0,.27.03.69.27.96.11.11-.07.09-.12,0-.2-.09-.1-.74-.38-.9-.44-.35-.12-.56-.02-.83-.38-.44-.6-.82-2.01-1.5-2.3-.33-.14-.66-.06-.99-.1-.36-.05-.96-.34-1.18-.64ZM65.23,31.43c-.1-.12-.59-.55-.74-.46-.11.07-.2.92-.21,1.09-.01.27.06.59.18.83.07.14.49.86.64.82.25-.28.07-.66.2-.97.02-.05.09-.09.11-.14.03-.1-.01-.22.02-.32s.15-.1.18-.15c.07-.12-.28-.59-.37-.69ZM67.57,33.13c-.18.06.03.62.2.58.06-.02.3-.26.28-.35-.02-.06-.38-.27-.47-.23Z"/>
    <path d="M62.89,41c-.06-.06-.25-.04-.28-.13.2-.11.45-.31.61-.48.12-.12.55-.74.66-.73.32.28.38.86.35,1.26-.07.8-.94,3.48-1.42,4.1-.18.23-.47.58-.73.23-.18-.24-.14-.56-.21-.84-.11-.45-.37-.6.02-1.06.27-.32.54-.27.76-.75.12-.27.46-1.38.23-1.61Z"/>
    <path d="M55.97,42.56c.14.16.33.35.49.5.13.12.56.37.55.54-.05.18-.3.2-.46.25-.21.06-.55.17-.75.08-.12-.05-.56-.41-.69-.52-.32-.28-.61-.64-.93-.92-.18-.15-.81-.56-.86-.72-.07-.19.1-.39.21-.54.17-.23.39-.38.58-.59.23-.25.56-.97.92-.58.12.46.13.99.28,1.43.11.31.46.8.68,1.06Z"/>
    <path d="M57.83,45.3s.03.08.02.12c-.09.48-1.25,1.47-1.77,1.03-.04-.22,0-.66.2-.8.09-.06.72-.22.87-.25.13-.03.58-.15.67-.1Z"/>
    <path d="M59.72,30.33c-.18.08-.61.01-.48-.25.11-.22.6.1.48.25Z"/>
  </g>
</svg>