<svg xmlns="http://www.w3.org/2000/svg" id="Layer_1" version="1.1" viewBox="1.14 22.02 69.72 27.95">
  <!-- Generator: Adobe Illustrator 29.6.0, SVG Export Plug-In . SVG Version: 2.1.1 Build 207)  -->
  <path d="M44.16,22.2s.01.04.02.07c0,.19-.29.38-.41.5l-1.17,1.13c-.77.74-1.54,1.49-2.3,2.23-.05.05-.11.1-.18.12-.15.04-.28-.08-.4-.18-.61-.5-1.47-.52-2.26-.51-1.06,0-2.12.01-3.17.02-.71,0-1.48.02-2.06.44-.59.43-.85,1.19-.91,1.92s.04,1.46,0,2.19c-1.8-.06-3.46-1.48-3.8-3.25s.69-3.7,2.34-4.42c1.01-.44,2.15-.44,3.26-.44,3.53.02,7.05.03,10.58.05.14,0,.4-.03.46.11Z"/>
  <path d="M24.44,49.83c-.55-.05-1.09-.13-1.61-.31-.56-.2-1.08-.52-1.43-1-.36-.49-.51-1.09-.6-1.69-.15-1.02-.13-2.06.05-3.07.11-.61.3-1.24.72-1.7.51-.56,1.28-.79,2.03-.91.99-.16,2-.16,3.01-.13.74.02,1.47.06,2.2.12.1,0,.21.02.27.11.04.06.04.13.04.2,0,.36,0,.71-.01,1.07-1.58.06-3.18-.16-4.73.14-.31.06-.64.15-.88.36-.33.29-.44.75-.5,1.19-.13.91-.13,1.84.06,2.73.07.35.19.7.45.94.27.24.65.3,1.01.34.88.09,1.76.09,2.63,0,.14-.01.28-.03.4-.11.27-.17.29-.54.29-.86,0-.72,0-1.44,0-2.16,0-.05,0-.11.03-.15.05-.06.13-.07.21-.06.65,0,1.31,0,1.96.01,0,.42-.03.82-.03,1.24,0,.44.06.87.07,1.31.02.62-.09,1.31-.55,1.72-.28.25-.66.37-1.03.46-1.28.31-2.62.33-3.94.22-.04,0-.09,0-.13-.01Z"/>
  <path d="M10.99,49.88h-.02c.76-2.34,1.51-4.68,2.27-7.03.16-.51.35-1.05.76-1.39.44-.37,1.06-.45,1.64-.44.58,0,1.2.09,1.64.47.41.35.59.89.76,1.4.39,1.19.77,2.38,1.16,3.57.19.59.38,1.18.57,1.76l.29.88c.05.14.31.63.15.74-.06.04-.14.04-.21.04-.57,0-1.14,0-1.71-.01-.15-.64-.34-1.27-.55-1.89-.02-.06-.05-.13-.1-.16-.06-.04-.14-.05-.21-.05-1.24,0-2.48,0-3.72,0-.05,0-.1,0-.14.03-.04.03-.06.08-.07.13-.18.65-.36,1.3-.54,1.95-.66,0-1.31,0-1.97,0ZM14.05,46.25c.91.01,1.83.02,2.74.03.09,0,.19,0,.27-.04.22-.12.09-.38.03-.55-.09-.27-.18-.54-.27-.8l-.56-1.64c-.08-.23-.17-.47-.38-.58-.24-.13-.56,0-.74.2s-.26.48-.34.74c-.26.89-.52,1.77-.78,2.66h.02Z"/>
  <path d="M30.53,49.88h0c.72-2.23,1.44-4.46,2.17-6.7.12-.37.24-.75.43-1.1.16-.31.38-.59.68-.76.27-.15.59-.18.9-.21.69-.06,1.44-.09,2,.31.52.37.74,1.02.94,1.62.39,1.19.77,2.39,1.16,3.58.2.6.39,1.2.59,1.81.1.3.19.59.29.89.08.24.3.57-.09.57-.57,0-1.14-.01-1.71-.02-.2-.7-.41-1.39-.61-2.09h-3.95c-.06-.01-.12,0-.17.03-.04.03-.06.08-.07.13-.19.65-.39,1.29-.58,1.94h-1.96ZM33.6,46.25c.92,0,1.84.01,2.75.02.08,0,.17,0,.25-.03.23-.11.07-.4.01-.57l-.24-.77c-.16-.5-.32-1.01-.48-1.51-.05-.17-.11-.34-.2-.48s-.24-.27-.41-.3c-.25-.04-.49.12-.63.32-.11.16-.17.36-.22.54-.28.93-.55,1.86-.83,2.78h0Z"/>
  <path d="M1.21,42.86c.13-.39.4-.74.74-.99.45-.33,1-.51,1.55-.63,1.92-.41,3.91-.17,5.86.07.06,0,.13.02.17.06.05.04.07.11.08.18.05.32,0,.65-.13.94-1.66-.16-3.33-.09-5-.02-.27.01-.54.02-.79.12s-.47.3-.52.56c-.05.26.08.53.28.71s.45.28.7.37c1.76.64,3.7.77,5.35,1.64.26.14.51.29.71.51.41.46.4,1.19.17,1.73s-.71,1.02-1.26,1.29c-.84.41-1.8.45-2.73.47-1.63.04-3.28.04-4.87-.34-.06-.01-.12-.03-.17-.08-.06-.07-.06-.17-.06-.26.01-.22.02-.44.03-.66,2.05-.27,4.16.38,6.17-.11.24-.06.47-.13.67-.28s.35-.37.35-.61c0-.27-.18-.52-.4-.68s-.5-.22-.76-.29c-1.12-.29-2.24-.59-3.36-.88-.65-.17-1.32-.35-1.88-.73s-1-1-.97-1.68c0-.14.03-.28.08-.42Z"/>
  <path d="M41.85,49.87c0-2.85,0-5.69,0-8.54,0-.09,0-.19.08-.25.05-.04.13-.05.2-.05.38,0,.77-.01,1.15-.02.78-.01,1.57-.03,2.35-.03,1,0,2.01.02,2.99.25.52.12,1.03.3,1.44.64.5.41.82,1.01.99,1.64.33,1.23.34,2.69,0,3.92-.17.65-.51,1.28-1.04,1.69-.51.39-1.15.56-1.79.65-1.07.16-2.16.15-3.24.15-1.05,0-2.09-.02-3.14-.02ZM42.79,41.72c0,2.48,0,4.95,0,7.43,1.57-.03,3.14.17,4.7.05.55-.04,1.12-.13,1.58-.43.58-.37.93-1.04,1.06-1.72.04-.21.06-.42.07-.62.07-.74.06-1.39-.02-2.12-.04-.34-.1-.68-.21-1-.05-.16-.12-.31-.2-.46-.04-.08-.26-.3-.26-.38-.11-.13-.23-.24-.37-.33-.08-.05-.16-.08-.25-.12-.58-.23-1.21-.31-1.84-.34-1.42-.08-2.84.08-4.26.05h0Z"/>
  <path d="M70.81,46.47c-.1.78-.37,1.56-.9,2.13-.5.54-1.2.86-1.91,1.03-1.08.26-2.22.19-3.32,0-.78-.13-1.58-.35-2.16-.87-.49-.44-.78-1.06-.92-1.69s-.14-1.3-.12-1.95c.04-1.02.18-2.11.84-2.88.64-.73,1.64-1.03,2.61-1.17,1.1-.16,2.24-.15,3.31.17.66.2,1.3.52,1.75,1.05.74.86.86,2.14.87,3.23,0,.31-.01.63-.06.95ZM67.18,41.77c-.13-.01-.26-.02-.39-.03-.84-.06-1.69-.05-2.49.19-.41.12-.8.31-1.11.6-.36.35-.56.83-.67,1.31-.2.86-.14,1.75-.02,2.63.09.71.25,1.48.79,1.95.32.27.73.4,1.14.49.78.18,1.59.24,2.39.19.89-.05,1.84-.27,2.42-.96.31-.37.48-.85.56-1.33.14-.92.14-2.07-.05-2.98-.1-.5-.32-.98-.69-1.34-.49-.47-1.18-.64-1.87-.72Z"/>
  <path d="M51.68,49.88h-.01c.8-2.3,1.6-4.61,2.39-6.91.22-.64.48-1.33,1.06-1.69.35-.22.78-.27,1.19-.28.42,0,.86.04,1.22.26.54.33.79.98,1.01,1.58,0,.25.22.63.31.87.12.33.23.65.35.98.23.64.45,1.27.68,1.91s.45,1.27.68,1.91c.11.31.7,1.37.03,1.46-.19.03-.38-.09-.5-.24s-.18-.34-.24-.52c-.23-.7-.46-1.41-.68-2.11-.03-.09-.06-.18-.13-.23-.08-.06-.2-.07-.3-.06-1.64.03-3.28.05-4.92.08-.08,0-.16,0-.22.05-.06.04-.09.12-.11.2-.28.85-.57,1.69-.85,2.54-.02.07-.05.15-.12.2-.06.05-.15.05-.23.04-.21,0-.42,0-.62-.01ZM53.88,46.25c.51,0,4.49.04,4.88,0,.12-.3-.11-.71-.21-1-.13-.39-.27-.78-.41-1.17-.17-.46-.33-.92-.5-1.39-.09-.25-.19-.52-.39-.7-.29-.26-.72-.27-1.11-.26-.24,0-.49.03-.69.17-.22.16-.32.43-.4.69-.41,1.22-.81,2.43-1.22,3.65,0,0,.02,0,.05,0Z"/>
  <path d="M41.25,30.16c.05.01.1.02.15.04.98.26,1.86.9,2.42,1.75,1.12,1.72.81,4.14-.88,5.36-.28.2-.59.37-.91.5-1.24.49-2.61.48-3.94.46-3.52-.05-7.04-.09-10.56-.14,1.34-1.28,2.69-2.57,4.03-3.85.1-.09.2-.19.34-.21.19-.03.37.11.52.23.58.42,1.36.54,2.03.33.66-.21,1.19-.7,1.69-1.18.71-.69,1.41-1.39,2.1-2.11.4-.42.81-.85,1.34-1.08.52-.22,1.11-.23,1.67-.1Z"/>
  <path d="M33.98,30.45c.24.01.47.08.69.18,1.51.77,1.13,3.12-.54,3.38-.75.12-1.54-.29-1.89-.97s-.2-1.56.34-2.09c.36-.36.89-.54,1.4-.51Z"/>
  <path d="M34.09,26.22c.2.02.4.07.58.16,1.31.64,1.24,2.5.05,3.22-.22.13-.48.22-.74.23-.15,0-.3-.03-.45-.06-.2-.04-.4-.08-.59-.17-.26-.13-.47-.35-.62-.6-.4-.67-.32-1.6.2-2.19.38-.43.99-.65,1.56-.6Z"/>
  <path d="M38.33,26.21c.35.05.69.2.96.43,1.14,1.01.49,3.01-1.02,3.18-.23.03-.46,0-.68-.06-.26-.08-.5-.21-.7-.4-.46-.42-.69-1.08-.58-1.69.11-.63.58-1.18,1.19-1.39.27-.09.56-.12.84-.08Z"/>
</svg>