<?xml version="1.0" encoding="UTF-8"?>
<svg id="Layer_1" xmlns="http://www.w3.org/2000/svg" version="1.1" viewBox="0 0 72 72">
  <!-- Generator: Adobe Illustrator 29.6.0, SVG Export Plug-In . SVG Version: 2.1.1 Build 207)  -->
  <path d="M18.07,31.13v9.7l-2.1,1.21-2.1,1.21-2.1,1.21v-4.85l2.1-1.21v-2.43l-2.1,1.21-2.1,1.21-2.1-1.21-2.1-1.21v2.42l2.1,1.21h0v4.85l-2.1-1.21h0l-2.1-1.21h0s-2.1-1.21-2.1-1.21v-9.7l2.1-1.21,2.1-1.21v4.85l2.1-1.21v-4.85l2.1-1.21,2.1,1.21v4.85l2.1,1.21v-4.85l2.1,1.21,2.1,1.21Z"/>
  <path d="M23.73,37.06l1.78-.21c0,.38.12.66.37.85.25.19.53.28.87.28.23,0,.44-.04.61-.15.17-.1.25-.24.25-.41s-.09-.33-.27-.46c-.19-.14-.42-.25-.69-.34-.27-.08-.58-.19-.89-.33-.33-.13-.63-.27-.9-.43-.27-.16-.5-.38-.68-.67-.19-.29-.27-.63-.27-1.02,0-.67.25-1.2.78-1.57.51-.38,1.12-.58,1.83-.58s1.3.19,1.81.55c.5.36.8.86.86,1.49l-1.78.21c0-.21-.09-.38-.28-.49-.19-.12-.41-.18-.66-.18-.21,0-.4.04-.55.13-.16.08-.23.2-.23.35s.08.28.27.41c.18.13.41.22.68.3s.58.19.9.33c.31.14.62.28.89.45.27.17.5.4.69.69.18.3.27.65.27,1.04,0,.72-.26,1.28-.78,1.68-.51.4-1.13.59-1.86.59-.8,0-1.48-.22-2.07-.66-.59-.44-.91-1.06-.96-1.85ZM31.91,33.7v1.29h2.91v1.57h-2.91v1.33h3.51l-.48,1.57h-4.81v-7.34h5.06v1.57h-3.28ZM36.11,32.13h.91l3.52,3.85v-3.85h1.78v7.34h-.91l-3.52-3.86v3.86h-1.78v-7.34ZM48.55,33.7h-1.68v5.77h-1.78v-5.77h-2.08v-1.57h6.02l-.48,1.57ZM51.39,32.13v7.34h-1.78v-7.34h1.78ZM52.43,32.13h.91l3.52,3.85v-3.85h1.78v7.34h-.91l-3.52-3.86v3.86h-1.78v-7.34ZM61.48,33.7v1.29h2.91v1.57h-2.91v1.33h3.51l-.48,1.57h-4.81v-7.34h5.06v1.57h-3.28ZM67.46,32.13v5.77h3.27l-.47,1.57h-4.58v-7.34h1.78Z"/>
</svg>