<?xml version="1.0" encoding="UTF-8"?>
<svg id="Layer_1" xmlns="http://www.w3.org/2000/svg" version="1.1" viewBox="0 0 72 72">
  <!-- Generator: Adobe Illustrator 29.6.0, SVG Export Plug-In . SVG Version: 2.1.1 Build 207)  -->
  <path d="M23.63,31.36h-3.86v.97h2.84c.57,0,1.03.46,1.03,1.03v.84c0,.57-.46,1.03-1.03,1.03h-3.8v-.97h3.86v-.97h-2.84c-.57,0-1.03-.46-1.03-1.03v-.84c0-.57.46-1.03,1.03-1.03h3.8v.97ZM28.31,30.4c.57,0,1.03.46,1.03,1.03v2.78c0,.57-.46,1.03-1.03,1.03h-2.97c-.57,0-1.03-.46-1.03-1.03v-2.78c0-.57.46-1.03,1.03-1.03h2.97ZM28.37,31.36h-3.1v2.9h3.1v-2.9ZM31.06,34.23h3.77v1.04h-4.14c-.37,0-.67-.3-.67-.67v-4.25h1.04v3.87ZM39.71,30.4c.46,0,.84.37.84.83v4h-.97v-1.59h-3.1v1.59h-.97v-4c0-.46.37-.83.83-.83h3.37ZM39.57,31.36h-3.1v1.31h3.1v-1.31ZM45.29,30.4h.97v4.2c0,.35-.29.63-.63.63h-.75c-.24,0-.45-.12-.56-.33l-1.88-3.53h-.25v3.86h-.97v-4.2c0-.35.28-.63.63-.63h.79c.23,0,.45.12.56.33l1.88,3.53h.21v-3.86ZM51.14,30.4c.46,0,.84.37.84.83v4h-.97v-1.59h-3.1v1.59h-.97v-4c0-.46.37-.83.83-.83h3.37ZM51,31.36h-3.1v1.31h3.1v-1.31ZM23.53,37.66h-3.77v.97h3.77v.97h-3.77v1.93h-.97v-4.83h4.74v.97ZM28.21,36.69c.57,0,1.03.46,1.03,1.03v2.78c0,.57-.46,1.03-1.03,1.03h-2.97c-.57,0-1.03-.46-1.03-1.03v-2.78c0-.57.46-1.03,1.03-1.03h2.97ZM28.27,37.66h-3.1v2.9h3.1v-2.9ZM33.98,36.69h.97v3.21c0,.9-.73,1.62-1.63,1.62h-1.79c-.9,0-1.62-.72-1.62-1.62v-3.21h.97v3.01c0,.47.38.85.85.85h1.39c.47,0,.85-.38.85-.85v-3.01ZM39.7,36.69h.97v4.2c0,.35-.29.63-.63.63h-.75c-.24,0-.45-.12-.56-.33l-1.88-3.53h-.25v3.86h-.97v-4.2c0-.35.28-.63.63-.63h.79c.23,0,.45.12.56.33l1.88,3.53h.21v-3.86ZM44.76,36.69c.9,0,1.62.73,1.63,1.62v1.59c0,.9-.73,1.62-1.63,1.62h-3.41v-4.83h3.41ZM45.41,38.52c0-.48-.38-.86-.85-.86h-2.25v2.9h2.25c.47,0,.85-.38.85-.85v-1.19ZM51.26,36.69c.46,0,.84.37.84.83v4h-.97v-1.59h-3.1v1.59h-.97v-4c0-.46.37-.83.83-.83h3.37ZM51.13,37.66h-3.1v1.31h3.1v-1.31ZM52.78,36.69h4.83v.97h-1.93v3.86h-.97v-3.86h-1.93v-.97ZM59.26,41.53h-.97v-4.83h.97v4.83ZM63.94,36.69c.57,0,1.03.46,1.03,1.03v2.78c0,.57-.46,1.03-1.03,1.03h-2.97c-.57,0-1.03-.46-1.03-1.03v-2.78c0-.57.46-1.03,1.03-1.03h2.97ZM64,37.66h-3.1v2.9h3.1v-2.9ZM69.71,36.69h.97v4.2c0,.35-.29.63-.63.63h-.75c-.24,0-.45-.12-.56-.33l-1.88-3.53h-.25v3.86h-.97v-4.2c0-.35.28-.63.63-.63h.79c.23,0,.45.12.56.33l1.88,3.53h.21v-3.86Z"/>
  <path d="M1.42,41.64s-.07-.06-.09-.1c-.02-.04-.02-.09-.02-.14s.03-.09.06-.12l2.06-2.21s.1-.09.16-.11c.06-.03.12-.04.19-.04h9.76s.09.01.13.04c.04.03.07.06.09.1.02.04.02.09.02.14,0,.05-.03.09-.06.12l-2.06,2.21s-.1.09-.16.11"/>
  <path d="M11.66,34.86s-.1-.09-.16-.11c-.06-.03-.13-.04-.19-.04H1.55s-.09.01-.13.04c-.04.03-.07.06-.09.1-.02.04-.02.09-.02.14,0,.05.03.09.06.12l2.06,2.21s.1.09.16.11c.06.03.12.04.19.04h9.76s.09-.01.13-.04c.04-.03.07-.06.09-.1.02-.04.02-.09.02-.14,0-.05-.03-.09-.06-.12l-2.06-2.21Z"/>
  <path d="M1.55,33.27h9.76c.07,0,.13-.01.19-.04.06-.03.11-.06.16-.11l2.06-2.21s.05-.08.06-.12c0-.05,0-.09-.02-.14-.02-.04-.05-.08-.09-.1-.04-.03-.08-.04-.13-.04H3.79c-.07,0-.13.01-.19.04-.06.03-.11.06-.16.11l-2.06,2.21s-.05.08-.06.12,0,.09.02.14c.02.04.05.08.09.1.04.03.08.04.13.04Z"/>
</svg>