<?xml version="1.0" encoding="UTF-8"?>
<svg id="Layer_1" xmlns="http://www.w3.org/2000/svg" version="1.1" viewBox="0 0 72 72">
  <!-- Generator: Adobe Illustrator 29.6.0, SVG Export Plug-In . SVG Version: 2.1.1 Build 207)  -->
  <g>
    <g>
      <path d="M9.67,42.06c0,1.6-.77,2.07-1.81,2.07s-1.88-.17-1.88-1.44.7-2.04.7-2.04c-.04.92.74.76.74.76,1.2,0,.4-2.01.4-2.01.91.3,1.84,1.05,1.84,2.65Z"/>
      <path d="M14,34.39c-.31-.35-.85-.27-1.21-.03l-.49.45c.36-2.88-1.04-5.83-3.52-7.33.38,1.61.34,3.95-.3,5.49-.04.1-.15.48-.31.36-.05-.04-.17-.97-.22-1.17-.28-1.02-.99-1.74-2.08-1.83,1.2,1.19.53,3.02-.45,4.12-.76.84-1.9,1.32-2.54,2.25-.93,1.33-.77,2.79-.46,4.3l-.2-.14-.96-1.56c.19,2.68,1.78,4.5,4.41,5.01,3.93.76,7.62-.42,8.01-4.86.11-1.2-.11-2.23-.18-3.39-.03-.52-.05-1.43.48-1.67ZM11.86,42.32c-.6,1.24-2.42,2.04-4.28,2.04-2.77,0-3.61-1.52-3.61-3.31s1.12-2.75,1.98-3.56c.87-.81.81-2.2.81-2.2,1.38.54,1.31,1.71,1.31,1.71,2.02-1.02,2.4-3.48,2.4-3.48,2.22,4.99,1.98,7.57,1.38,8.81Z"/>
    </g>
    <path d="M9.67,42.06c0,1.6-.77,2.07-1.81,2.07s-1.88-.17-1.88-1.44.7-2.04.7-2.04c-.04.92.74.76.74.76,1.2,0,.4-2.01.4-2.01.91.3,1.84,1.05,1.84,2.65Z"/>
    <path d="M9.67,42.06c0,1.6-.77,2.07-1.81,2.07s-1.88-.17-1.88-1.44.7-2.04.7-2.04c-.04.92.74.76.74.76,1.2,0,.4-2.01.4-2.01.91.3,1.84,1.05,1.84,2.65Z"/>
  </g>
  <g>
    <path d="M44.87,36.55c.2.34.64.32.95.65.75.77.72,2.44.15,3.31-.41.62-1.21,1.04-1.92,1.12-.88.11-3.31.13-4.17,0-.58-.08-.75-.45-.81-1.04-.18-1.71-.15-5.73,0-7.48.05-.64.15-1.1.82-1.19.94-.14,4-.08,4.83.25,1.93.76,2,3.51.15,4.37ZM40.86,36.08h2.3c.08,0,.87-.32.96-.4.66-.59.22-2.3-.52-2.3h-2.75v2.7ZM40.86,40.21h3.05c.77,0,1.33-2.26-.03-2.67-.89-.26-2.09-.16-3.01-.2v2.86Z"/>
    <path d="M25.64,40.79c-.84.91-2.3,1.08-3.45,1.02-.81-.04-3.34-.53-3.02-1.8.3-1.2,1.75.04,2.47.16,1.04.17,2.77.24,2.97-1.18.05-1.25-2.82-1.35-3.68-1.72-2.75-1.19-1.86-4.92,1.03-5.41.97-.17,4.46.06,4,1.72-.55,1.02-1.49-.07-2.29-.19s-2.11-.1-2.48.82c-.77,1.92,2.44,1.89,3.54,2.34,1.7.7,2.17,2.85.91,4.24Z"/>
    <path d="M29.52,34.84c.43-.08,1.16-.09,1.6-.04,3.64.43,3.63,7.47-1.19,6.99-3.7-.37-3.64-6.37-.41-6.95ZM30.27,36.1c-1.84.21-1.82,3.86-.31,4.23,2.72.66,2.54-4.48.31-4.23Z"/>
    <path d="M55.72,37.67c.13-1.15-.3-1.66-1.39-1.58-.55.04-2.76,1.22-2.3-.38.33-1.13,4.93-1.71,5.32.93.12.84.11,3.58.02,4.45-.12,1.07-1.41.86-1.72-.09-1.48,2.06-5.22-.02-3.77-2.45.23-.38,1.33-.9,1.69-.9h2.16ZM55.72,38.62c-.58.04-2.26-.01-2.38.72-.33,1.99,2.92,1.3,2.38-.72Z"/>
    <path d="M66.27,38.78c.1,1.47,1.1,1.73,2.3,1.59.69-.08,2.43-1.22,1.94.49-.23.82-2.42,1.02-3.13.94-3.89-.46-3.68-6.62-.16-7,1.44-.15,2.68.29,3.23,1.8.2.54.58,2.18-.25,2.18h-3.94ZM69.25,37.67c-.08-2.27-2.92-2.19-2.97,0h2.97Z"/>
    <path d="M60.62,40.37h3.2c.26,0,.47,1.11-.3,1.27-.62.12-3.49.11-4.16.01-.77-.11-.81-.69-.49-1.34l2.95-4.07h-2.9c-.39,0-.39-1.27,0-1.27h4.61c.24,0,.54.8.26,1.07l-3.16,4.33Z"/>
    <path d="M36.55,39.33c.14.85.9,1.15,1.64,1.03.49,1.94-1.91,1.76-2.76.8-.1-.11-.51-.83-.51-.88v-8.11c.47-.54,1.17-.54,1.63,0v7.15Z"/>
    <path d="M49.48,39.33c.14.85.9,1.15,1.64,1.03.49,1.94-1.91,1.76-2.76.8-.1-.11-.51-.83-.51-.88v-8.11c.47-.54,1.17-.54,1.63,0v7.15Z"/>
  </g>
</svg>