<?xml version="1.0" encoding="UTF-8"?>
<svg xmlns="http://www.w3.org/2000/svg" version="1.1" viewBox="0 0 72 72">
  <!-- Generator: Adobe Illustrator 29.6.0, SVG Export Plug-In . SVG Version: 2.1.1 Build 207)  -->
  <defs>
    <style>
      .st0 {
        mix-blend-mode: multiply;
      }

      .st0, .st1 {
        isolation: isolate;
      }
    </style>
  </defs>
  <g class="st1">
    <g id="Layer_1">
      <g>
        <path class="st0" d="M14.76,36.01c0,2.03-.9,3.86-2.33,5.09,0,0,0,0,0,0-.23.2-.48.38-.73.55-.02.01-.03.02-.05.03-.08.05-.16.1-.25.15-.02.01-.05.03-.07.04-.07.04-.14.08-.22.12-.03.02-.07.03-.1.05-.05.02-.09.04-.14.07-.05.02-.09.04-.14.06-.06.03-.11.05-.17.07-.05.02-.09.04-.14.05-.05.02-.11.04-.16.06-.06.02-.11.04-.17.06-.04.01-.07.02-.11.04-.08.02-.15.04-.23.06-.03,0-.07.02-.1.03-.08.02-.16.04-.23.05-.03,0-.06.01-.09.02-.07.01-.14.03-.22.04-.03,0-.05,0-.08.01-.09.01-.18.02-.26.03-.03,0-.06,0-.09,0-.09,0-.18.02-.27.02-.03,0-.05,0-.08,0-.09,0-.17,0-.26,0-.01,0-.02,0-.03,0-2.16,0-4.08-1.02-5.32-2.6,0,0,0,0,0,0h0c.68.29,1.53.45,2.52.45.11,0,.21,0,.32,0,.01,0,.02,0,.04,0,.78-.03,1.6-.15,2.44-.36,0,0,0,0,0,0h0s0,0,0,0c0,0,0,0,0,0,.46-.12.92-.26,1.38-.42,1.79-.65,3.35-1.62,4.4-2.73h0c.41-.44.73-.88.95-1.32,0,.08,0,.16,0,.24ZM9.17,39.18c-1.26.46-2.5.7-3.6.74,0,0,0,0,0,0-.12,0-.23,0-.34,0-.51,0-.98-.05-1.41-.13-1.08-.22-1.86-.72-2.14-1.48h0c-.26-.72-.4-1.5-.4-2.31h0s0,0,0,0c0-.06,0-.12,0-.18.1-3.64,3.08-6.56,6.74-6.56,2.91,0,5.4,1.85,6.34,4.44h0c.64,1.75-1.68,4.2-5.18,5.47Z"/>
        <path d="M5.22,39.93c-.51,0-.98-.04-1.41-.13.43.09.9.13,1.41.13.11,0,.23,0,.34,0-.12,0-.23,0-.34,0h0Z"/>
        <path d="M8.01,29.27c-3.66,0-6.64,2.92-6.74,6.56,0-.02,0-.04,0-.06.22.44.54.88.95,1.31,1.05,1.11,2.61,2.08,4.4,2.73,0,0,.02,0,.02,0-.37.05-.74.09-1.09.1,1.1-.04,2.34-.29,3.6-.74,3.5-1.27,5.82-3.72,5.18-5.47h0c-.94-2.59-3.42-4.44-6.34-4.44Z"/>
        <polygon points="1.27 36.01 1.27 36.01 1.27 36.01 1.27 36.01"/>
        <path d="M8.39,42.75s-.05,0-.08,0c.03,0,.05,0,.08,0Z"/>
        <path d="M8.75,42.72s-.06,0-.09,0c.03,0,.06,0,.09,0Z"/>
        <path d="M10.72,42.19c-.06.03-.11.05-.17.07.06-.02.11-.05.17-.07Z"/>
        <path d="M9.74,42.53s-.07.02-.1.03c.03,0,.07-.02.1-.03Z"/>
        <path d="M11,42.06s-.09.04-.14.07c.05-.02.09-.04.14-.07Z"/>
        <path d="M2.7,40.16s0,0,0,0c1.23,1.58,3.16,2.6,5.32,2.6.01,0,.02,0,.03,0-.01,0-.02,0-.03,0-2.16,0-4.08-1.02-5.31-2.6Z"/>
        <path d="M9.4,42.61s-.06.01-.09.02c.03,0,.06-.01.09-.02Z"/>
        <path d="M10.08,42.43s-.08.02-.11.04c.04-.01.08-.02.11-.04Z"/>
        <path d="M9.1,42.67s-.05,0-.08.01c.03,0,.05,0,.08-.01Z"/>
        <path d="M10.42,42.31c-.05.02-.11.04-.16.06.05-.02.11-.04.16-.06Z"/>
        <path d="M5.54,40.6s.02,0,.04,0c-.01,0-.02,0-.04,0Z"/>
        <path d="M11.64,41.7c-.08.05-.16.1-.25.15.08-.05.17-.1.25-.15Z"/>
        <path d="M11.32,41.89c-.07.04-.14.08-.22.12.07-.04.15-.08.22-.12Z"/>
        <path d="M12.42,41.11c-.23.2-.48.38-.73.55.26-.17.5-.35.73-.55Z"/>
        <path d="M13.8,37.09c-1.05,1.11-2.61,2.08-4.4,2.73-.46.17-.92.31-1.38.42.96.24,1.9.37,2.78.37.99,0,1.84-.16,2.52-.45-.27.34-.57.66-.9.95,1.43-1.24,2.33-3.06,2.33-5.09,0-.08,0-.16,0-.24-.22.44-.54.88-.95,1.31h0Z"/>
        <path class="st0" d="M1.68,38.32h0c-.26-.72-.4-1.5-.4-2.31h0c0,.81.14,1.59.4,2.31h0c.27.76,1.06,1.26,2.14,1.48-1.08-.22-1.86-.72-2.14-1.48Z"/>
        <path d="M1.68,38.32h0c-.26-.72-.4-1.5-.4-2.31h0c0,.81.14,1.59.4,2.31h0c.27.76,1.06,1.26,2.14,1.48-1.08-.22-1.86-.72-2.14-1.48Z"/>
        <path class="st0" d="M1.27,36.01c0-.06,0-.12,0-.18,0,.06,0,.12,0,.18Z"/>
        <path d="M1.27,36.01c0-.06,0-.12,0-.18,0,.06,0,.12,0,.18Z"/>
        <path class="st0" d="M5.57,39.93s0,0,0,0c0,0,0,0,0,0Z"/>
        <path d="M5.57,39.93s0,0,0,0c0,0,0,0,0,0Z"/>
        <path d="M6.63,39.82c-1.79-.65-3.35-1.62-4.4-2.73-.41-.44-.73-.88-.95-1.31,0,.02,0,.04,0,.06,0,.06,0,.12,0,.18,0,0,0,0,0,0,0,.81.14,1.59.4,2.31h0c.27.75,1.06,1.26,2.14,1.48.43.09.9.13,1.41.13h0c.11,0,.23,0,.34,0,0,0,0,0,0,0,.35-.01.71-.05,1.09-.1,0,0-.02,0-.02,0Z"/>
        <path class="st0" d="M11.39,41.85s-.05.03-.07.04c.02-.01.05-.03.07-.04Z"/>
        <path d="M11.39,41.85s-.05.03-.07.04c.02-.01.05-.03.07-.04Z"/>
        <path class="st0" d="M9.97,42.47c-.08.02-.15.04-.23.06.08-.02.15-.04.23-.06Z"/>
        <path d="M9.97,42.47c-.08.02-.15.04-.23.06.08-.02.15-.04.23-.06Z"/>
        <path class="st0" d="M11.69,41.67s-.03.02-.05.03c.02-.01.03-.02.05-.03Z"/>
        <path d="M11.69,41.67s-.03.02-.05.03c.02-.01.03-.02.05-.03Z"/>
        <path class="st0" d="M10.25,42.37c-.06.02-.11.04-.17.06.06-.02.11-.04.17-.06Z"/>
        <path d="M10.25,42.37c-.06.02-.11.04-.17.06.06-.02.11-.04.17-.06Z"/>
        <path class="st0" d="M10.87,42.12s-.09.04-.14.06c.05-.02.09-.04.14-.06Z"/>
        <path d="M10.87,42.12s-.09.04-.14.06c.05-.02.09-.04.14-.06Z"/>
        <path class="st0" d="M11.1,42.01s-.07.03-.1.05c.03-.02.07-.03.1-.05Z"/>
        <path d="M11.1,42.01s-.07.03-.1.05c.03-.02.07-.03.1-.05Z"/>
        <path class="st0" d="M10.55,42.26s-.09.04-.14.05c.05-.02.09-.04.14-.05Z"/>
        <path d="M10.55,42.26s-.09.04-.14.05c.05-.02.09-.04.14-.05Z"/>
        <path class="st0" d="M8.01,40.24c-.83.21-1.65.33-2.44.36.78-.03,1.61-.15,2.44-.36,0,0,0,0,0,0Z"/>
        <path d="M8.01,40.24c-.83.21-1.65.33-2.44.36.78-.03,1.61-.15,2.44-.36,0,0,0,0,0,0Z"/>
        <path class="st0" d="M12.43,41.11s0,0,0,0c0,0,0,0,0,0Z"/>
        <path d="M12.43,41.11s0,0,0,0c0,0,0,0,0,0Z"/>
        <polygon class="st0" points="8.01 40.24 8.01 40.24 8.01 40.24 8.01 40.24"/>
        <polygon points="8.01 40.24 8.01 40.24 8.01 40.24 8.01 40.24"/>
        <path class="st0" d="M8.31,42.75c-.09,0-.17,0-.26,0,.09,0,.18,0,.26,0Z"/>
        <path d="M8.31,42.75c-.09,0-.17,0-.26,0,.09,0,.18,0,.26,0Z"/>
        <path class="st0" d="M5.54,40.6c-.11,0-.21,0-.32,0-.99,0-1.84-.16-2.52-.45h0c.68.29,1.53.45,2.52.45.11,0,.21,0,.32,0Z"/>
        <path d="M5.54,40.6c-.11,0-.21,0-.32,0-.99,0-1.84-.16-2.52-.45h0c.68.29,1.53.45,2.52.45.11,0,.21,0,.32,0Z"/>
        <path class="st0" d="M9.31,42.63c-.07.01-.14.03-.22.04.07-.01.14-.02.22-.04Z"/>
        <path d="M9.31,42.63c-.07.01-.14.03-.22.04.07-.01.14-.02.22-.04Z"/>
        <path class="st0" d="M9.64,42.56c-.08.02-.16.04-.23.05.08-.02.16-.03.23-.05Z"/>
        <path d="M9.64,42.56c-.08.02-.16.04-.23.05.08-.02.16-.03.23-.05Z"/>
        <path class="st0" d="M9.01,42.68c-.09.01-.18.02-.26.03.09,0,.18-.02.26-.03Z"/>
        <path d="M9.01,42.68c-.09.01-.18.02-.26.03.09,0,.18-.02.26-.03Z"/>
        <path class="st0" d="M8.66,42.73c-.09,0-.18.02-.27.02.09,0,.18-.01.27-.02Z"/>
        <path d="M8.66,42.73c-.09,0-.18.02-.27.02.09,0,.18-.01.27-.02Z"/>
        <path d="M13.33,40.16c-.68.29-1.53.45-2.52.45-.88,0-1.83-.13-2.78-.37-.83.21-1.66.33-2.44.36-.01,0-.02,0-.04,0-.11,0-.21,0-.32,0-.99,0-1.84-.16-2.52-.45,1.23,1.58,3.16,2.6,5.31,2.6.01,0,.02,0,.03,0,.09,0,.18,0,.26,0,.03,0,.05,0,.08,0,.09,0,.18-.01.27-.02.03,0,.06,0,.09,0,.09,0,.18-.02.26-.03.03,0,.05,0,.08-.01.07-.01.14-.02.22-.04.03,0,.06-.01.09-.02.08-.02.16-.03.23-.05.03,0,.07-.02.1-.03.08-.02.15-.04.23-.06.04-.01.08-.02.11-.04.06-.02.11-.04.17-.06.05-.02.11-.04.16-.06.05-.02.09-.04.14-.05.06-.02.11-.05.17-.07.05-.02.09-.04.14-.06.05-.02.09-.04.14-.07.03-.02.07-.03.1-.05.07-.04.15-.08.22-.12.02-.01.05-.03.07-.04.08-.05.17-.1.25-.15.02-.01.03-.02.05-.03.26-.17.5-.35.73-.55,0,0,0,0,0,0,.33-.29.63-.6.9-.95Z"/>
        <path d="M24.84,33.53c1.06,0,1.69.41,2.14,1.24l1.34-1.14c-.72-1.14-1.7-1.68-3.51-1.68-2.33,0-3.54,1.24-3.54,2.55s.82,2.08,3.27,2.57c1.15.24,1.57.46,1.57.82,0,.43-.52.71-1.45.71-1.07,0-1.92-.29-2.36-1.24l-1.26,1.3h0c.72,1.08,2.03,1.52,3.65,1.52,2.35,0,3.59-1.03,3.59-2.46,0-1.32-.85-2.02-3.15-2.47-1.32-.27-1.72-.56-1.72-.97s.53-.76,1.42-.76Z"/>
        <path d="M44.17,31.95c-1.12,0-2.03.49-2.54,1.51v-4.82h-2.16v11.4h2.16v-4.19c0-1.59.9-2.19,1.81-2.19.82,0,1.4.44,1.4,1.81v4.57h2.16v-5.2h0c0-1.92-1.2-2.89-2.83-2.89Z"/>
        <path d="M56.01,36.04c0-2.6-1.26-4.09-3.79-4.09s-3.97,1.52-3.97,4.12,1.48,4.12,4.09,4.12c1.78,0,2.99-.68,3.49-1.95l-1.76-.65c-.22.63-.82.98-1.73.98-1.06,0-1.75-.54-1.97-1.68h5.57c.03-.2.06-.63.06-.85ZM50.36,35.37c.17-1.21.85-1.82,1.84-1.82s1.65.63,1.83,1.82h-3.67Z"/>
        <path d="M59.16,33.66v-1.55h-1.87v7.93h2.16v-4.11c0-1.44.94-2.14,1.89-2.14.41,0,.77.1.99.24l.27-1.9c-.19-.11-.5-.18-.85-.18-1.23,0-2.17.62-2.58,1.71Z"/>
        <path d="M70.73,36.04c0-2.6-1.26-4.09-3.79-4.09s-3.97,1.52-3.97,4.12,1.48,4.12,4.09,4.12c1.78,0,2.99-.68,3.49-1.95l-1.76-.65c-.22.63-.82.98-1.73.98-1.05,0-1.75-.54-1.97-1.68h5.57c.03-.2.06-.63.06-.85ZM65.08,35.37c.17-1.21.85-1.82,1.84-1.82s1.65.63,1.83,1.82h-3.67Z"/>
        <path d="M33.87,38.53c-1.13,0-2.12-.87-2.12-2.38v-.16c0-1.54.97-2.38,2.12-2.38s2.29.84,2.29,2.46-1.15,2.46-2.29,2.46ZM34.37,31.95c-1.26,0-2.18.5-2.62,1.52v-1.36h-2.16v11.26h2.16v-4.65c.46.89,1.46,1.48,2.62,1.48,2.08,0,3.81-1.54,3.81-4.14s-1.72-4.11-3.81-4.11Z"/>
      </g>
    </g>
  </g>
</svg>