<?xml version="1.0" encoding="UTF-8"?>
<svg id="Layer_1" xmlns="http://www.w3.org/2000/svg" version="1.1" viewBox="0 0 72 72">
  <!-- Generator: Adobe Illustrator 29.6.0, SVG Export Plug-In . SVG Version: 2.1.1 Build 207)  -->
  <path d="M42.62,35.99h0s0-.83,0-.83h-1.67v.83h-.84v-.83h-3.34s0,0,0,0v.84h-.82s0,0,0,0v4.16h.83s0,0,0,0v-.82h.84s0,0,0,0v-.84c.29,0,.57,0,.86,0h0c.29,0,.57,0,.86,0,.37,0,.75,0,1.12,0,.44,0,.88,0,1.32,0v.84h.84v.82h.82s0,0,0,0v-4.16h-.82ZM42.61,36.83v1.66h-.83v-1.66h.83ZM37.61,36.83v1.66h-.83v-1.66h.83Z"/>
  <g>
    <path d="M3.45,38.64c-.78,0-1.56-.27-2.18-.82l.67-.8c.46.38.95.62,1.53.62.46,0,.74-.18.74-.48h0c0-.3-.18-.45-1.03-.67-1.03-.26-1.7-.55-1.7-1.57h0c0-.95.75-1.56,1.8-1.56.75,0,1.39.23,1.91.65l-.59.85c-.45-.32-.9-.51-1.33-.51s-.66.2-.66.45h0c0,.35.22.46,1.11.69,1.04.27,1.63.65,1.63,1.54h0c0,1.03-.78,1.61-1.88,1.61h0Z"/>
    <path d="M8.49,34.47v4.09h-1.13v-4.09h-1.56v-1.04h4.25v1.04h-1.56Z"/>
    <path d="M12.9,33.4h-1.04l-2.2,5.17h1.15l.47-1.15h2.17l.47,1.15h1.18l-2.2-5.17ZM11.68,36.42l.68-1.66.68,1.66h-1.36Z"/>
    <path d="M17.83,38.65c-1.51,0-2.63-1.17-2.63-2.64h0c0-1.47,1.1-2.67,2.68-2.67.97,0,1.55.32,2.02.79l-.72.83c-.4-.36-.8-.58-1.31-.58-.86,0-1.49.72-1.49,1.6h0c0,.89.61,1.63,1.49,1.63.59,0,.95-.23,1.35-.6l.72.73c-.53.56-1.11.92-2.1.92h0Z"/>
    <path d="M23.87,38.56v-2.06h-2.08v2.06h-1.13v-5.13h1.13v2.03h2.08v-2.03h1.13v5.13h-1.13Z"/>
    <path d="M26.17,38.56v-5.13h3.87v1h-2.75v1.04h2.42v1h-2.42v1.08h2.79v1h-3.91Z"/>
    <path d="M52.98,38.56l-2.48-3.26v3.26h-1.11v-5.13h1.04l2.4,3.16v-3.16h1.11v5.13h-.96Z"/>
    <path d="M57.58,33.35c-1.58,0-2.73,1.19-2.73,2.65h0c0,1.47,1.14,2.65,2.72,2.65s2.73-1.19,2.73-2.65h0c0-1.47-1.14-2.65-2.72-2.65ZM59.12,36.01c0,.88-.63,1.6-1.54,1.6s-1.55-.73-1.55-1.61h0c0-.89.63-1.61,1.54-1.61s1.55.73,1.55,1.61h0Z"/>
    <path d="M63.2,33.43h-2v5.13h2c1.61,0,2.73-1.12,2.73-2.57h0c0-1.46-1.11-2.57-2.73-2.57ZM64.75,36.01c0,.91-.62,1.53-1.55,1.53h-.87v-3.09h.87c.92,0,1.55.64,1.55,1.55h0Z"/>
    <path d="M66.82,38.56v-5.13h3.87v1h-2.75v1.04h2.42v1h-2.42v1.08h2.79v1h-3.91Z"/>
    <path d="M42.62,35.99h0s0-.83,0-.83h-1.67v.83h-.84v-.83h-3.34s0,0,0,0v.84h-.82s0,0,0,0v4.16h.83s0,0,0,0v-.82h.84s0,0,0,0v-.84c.29,0,.57,0,.86,0h0c.29,0,.57,0,.86,0,.37,0,.75,0,1.12,0,.44,0,.88,0,1.32,0v.84h.84v.82h.82s0,0,0,0v-4.16h-.82ZM42.61,36.83v1.66h-.83v-1.66h.83ZM37.61,36.83v1.66h-.83v-1.66h.83Z"/>
    <path d="M48.34,31.95h-1.67s-.84,0-.84,0v-1.66h-1.67s-.83,0-.83,0v-1.66h-2.5s-2.27,0-2.27,0v.82h-.84s-4.99,0-4.99,0v2.5s0,.83,0,.83h-.82v1.67h0v.84h-.84s0,1.55,0,1.55v.72s.84,0,.84,0v.84h0v1.66h1.66s.83.01.83.01v1.66h.84v.83h.82v.04h0s0,.8,0,.8h0s7.29,0,7.29,0h0s0-.84,0-.84h.83v-.83h.84v-1.66h.22s2.26,0,2.26,0h0s0-.01,0-.01v-1.67s0,0,0,0v-2.28h0v-.03s.01-.07.01-.11v-1.76h.83v-2.26h0ZM41.78,29.33h.84v.82h-.84v-.82ZM33.44,30.16h.84v.84h-.84v-.84ZM31.77,36.82v-.83c.28,0,.56,0,.84,0v.83c-.28,0-.56,0-.84,0ZM33.44,39.33h-.82v-.84h.82v.84ZM42.62,42.67h-5.84c0-.28,0-.56,0-.84.03,0,.06,0,.08,0h4.81c.31,0,.63,0,.94,0,0,.28,0,.56,0,.84ZM46.78,39.33h-.82v-.84h.82v.84ZM46.78,36.82v.84h-.83v.83h-.84v.84h-.83v1.66h-.84v.83h-.83v-.83h-1.67v-.84h-.84v-.82h-.83v.83h-.84v.84h-1.67v.82h-.82v-.83h-.84v-1.66h-.83v-.85h-.84v-.82h-.83v-.84h.82v-.83h-.82v-.84h.82v-.83h-.82v-.84h.82v-.83h.84v-1.67h.82v.82h.84v-1.66h.83v.83h1.67v-.83h.84v-.82h.83v1.66h.84v-.84h.83v.84h1.67v.82h.84v-.82h.83v1.66h.84v.83h.83c0,.83,0,1.65,0,2.48,0,0,0,.01,0,.03h-.82v.83h.82ZM47.62,33.49h-.84v-.82h.84v.82Z"/>
    <path d="M42.62,41.83h0c-.31,0-.63,0-.94,0h-4.81s-.06,0-.08,0h0s.06,0,.08,0h4.81c.31,0,.63,0,.94,0Z"/>
    <polygon points="45.95 38.49 45.95 38.49 45.95 38.49 45.95 38.49"/>
    <polygon points="33.44 38.49 33.44 38.49 33.44 38.49 33.44 38.49 33.44 38.49 33.44 38.49"/>
    <path d="M35.95,36h0s.82,0,.82,0h0s-.82,0-.82,0ZM36.78,39.33v.82h0v-.82h0ZM37.62,38.49v.84h0v-.84h0ZM36.77,35.16h0s3.34,0,3.34,0h0s-3.34,0-3.34,0ZM42.62,35.99h0s.82,0,.82,0v4.16h0v-4.16h-.82Z"/>
    <path d="M41.78,30.15h0s0,0,0,0h0Z"/>
    <polygon points="34.28 30.99 34.28 31 34.28 31 34.28 30.99"/>
    <path d="M46.78,33.49h0s0,0,0,0h0Z"/>
    <path d="M34.28,30.99h0s0,0,0,0Z"/>
    <path d="M41.78,30.16h0s0,0,0,0h0Z"/>
    <path d="M46.78,33.49h0s0,0,0,0h0Z"/>
    <polygon points="45.95 38.49 45.95 38.49 45.95 38.49 45.95 38.49"/>
    <polygon points="33.44 38.49 33.44 38.49 33.44 38.49 33.44 38.49 33.44 38.49 33.44 38.49 33.44 38.49"/>
    <path d="M36.77,41.83h0s0,0,0,0Z"/>
    <path d="M42.62,41v.83h0s0,0,0,0c-.31,0-.63,0-.94,0h-4.81s-.06,0-.08,0h0s0,0,0,0v-.82h1.67v-.84h.84v-.83h.83v.82h.84v.84h1.67Z"/>
    <path d="M42.62,41.83h0,0s0,0,0,0Z"/>
    <path d="M36.77,41.83h0s0,0,0,0h0s0,0,0,0Z"/>
    <path d="M42.62,41.83h0s0,0,0,0h0Z"/>
    <path d="M36.78,41.83h0s0,0,0,0h0Z"/>
    <path d="M36.78,41.83h0s0,0,0,0Z"/>
    <path d="M42.62,41.83h0s0,0,0,0Z"/>
    <path d="M32.61,36.82h0s0,0,0,0h0Z"/>
    <polygon points="32.61 36.82 32.61 36.83 32.61 36.83 32.61 36.82"/>
    <path d="M32.61,36h0s0,0,0,0h0Z"/>
    <path d="M32.61,36h0,0s0,0,0,0Z"/>
    <path d="M37.61,38.49h0s0,0,0,0Z"/>
    <path d="M43.44,35.99v4.16h-.82v-.82h-.84v-.84h0s.84,0,.84,0v-1.66h-.84v1.66h0s0,0,0,0c-.44,0-.88,0-1.32,0-.37,0-.75,0-1.12,0-.29,0-.57,0-.86,0h0c-.29,0-.57,0-.86,0h0s0,0,0,0v-1.66h-.84v1.66h.84s0,0,0,0v.84h-.84v.82h-.83v-4.16h.82v-.84h3.34v.83h.84v-.83h1.67v.83h0s.82,0,.82,0Z"/>
    <path d="M41.78,38.49h0s0,0,0,0h0Z"/>
    <path d="M40.46,38.49c-.37,0-.75,0-1.12,0,.37,0,.75,0,1.12,0Z"/>
    <polygon points="37.61 38.49 37.61 38.49 36.78 38.49 36.78 36.83 36.78 36.83 36.78 38.49 37.61 38.49"/>
    <path d="M37.61,38.49h0s0,0,0,0h0Z"/>
    <polygon points="42.61 38.49 42.61 38.49 41.78 38.49 41.78 38.49 41.78 36.83 41.78 36.83 41.78 38.49 42.61 38.49"/>
    <path d="M41.78,38.49h0,0s0,0,0,0Z"/>
  </g>
</svg>