<?xml version="1.0" encoding="UTF-8"?>
<svg id="Layer_1" xmlns="http://www.w3.org/2000/svg" version="1.1" viewBox="0 0 72 72">
  <!-- Generator: Adobe Illustrator 29.6.0, SVG Export Plug-In . SVG Version: 2.1.1 Build 207)  -->
  <defs>
    <style>
      .st0 {
        font-family: MyriadPro-Regular, 'Myriad Pro';
        font-size: 12.1px;
      }
    </style>
  </defs>
  <text class="st0" transform="translate(14.33 39.87)"><tspan x="0" y="0">The Library</tspan></text>
  <g>
    <path d="M10.89,44.92c-.11-.1-.14-.28-.17-.42-.16-.65-.22-1.33-.39-1.97-.13-.5-.23-1-.38-1.5-.25-.81-.65-1.65-1.06-2.39-.29-.53-.82-1.12-1.21-1.59-.31-.38-.63-.68-.96-1.03-.52-.56-1-1.14-1.58-1.65-.66-.58-1.4-1.06-2.09-1.59-.03-.02-.07-.02-.11-.06-.09-.1-.07-.45-.09-.6-.11-.74-.45-1.62-.71-2.32-.24-.65-.54-1.25-.86-1.86-.02-.04,0-.08.04-.1.37.23.67.56,1,.84.6.52,1.2.99,1.75,1.57,1.33,1.41,2.59,2.94,3.66,4.56s1.79,3.32,2.44,5.07c.51,1.36.75,3.09.79,4.54,0,.19.03.32-.06.51Z"/>
    <path d="M4.3,28.57l.33.25c.04-.21,0-.41-.05-.61.02-.08.16.03.2.05.13.06.28.1.4.16.08.04.39.23.4.31.03.12.05.38.06.51,0,.18-.05.35-.03.53l.29.31c.08-.4.07-.81,0-1.21.15.06.23.19.35.28.12.1.23.14.35.28.29.34.24.9.2,1.31,0,.1-.05.2-.05.3,0,.02.15.2.17.23.02.02.08.1.11.08.15-.4.09-.81.13-1.22.23.24.48.51.66.79.36.54.77,1.25,1.07,1.84.55,1.08.76,2.29,1.03,3.46.17.75.35,1.41.42,2.19.01.13,0,.25,0,.38l-.55-1.36c-1.53-3.07-3.66-5.95-6.15-8.32-.68-.65-1.42-1.2-2.11-1.81-.03-.03-.11-.06-.12-.09-.02-.03-.02-.13.02-.14.02,0,.21.04.25.05.58.13,1.13.38,1.7.56.26.08.48.09.72.26s.16.38.22.62Z"/>
  </g>
</svg>